<svg width="64" height="64" viewBox="0 0 64 64" fill="none" xmlns="http://www.w3.org/2000/svg">
<path d="M15.4142 14.6569C14.6331 15.4379 14.6331 16.7042 15.4142 17.4853L19.6568 21.7279C20.4378 22.509 21.7042 22.509 22.4852 21.7279L25.8347 18.3785C26.3973 17.8159 27.1604 17.4998 27.956 17.4998H36.186C36.9817 17.4998 37.7447 17.8159 38.3073 18.3785L41.6568 21.7279C42.4378 22.509 43.7042 22.509 44.4852 21.7279L48.7279 17.4853C49.5089 16.7042 49.5089 15.4379 48.7279 14.6569L44.4852 10.4142C43.7042 9.63317 42.4378 9.63317 41.6568 10.4142L38.4499 13.6211C37.8873 14.1837 37.1242 14.4998 36.3286 14.4998H27.8134C27.0178 14.4998 26.2547 14.1837 25.6921 13.6211L22.4852 10.4142C21.7042 9.63317 20.4378 9.63317 19.6568 10.4142L15.4142 14.6569Z" fill="black"/>
<path d="M45.4142 30.4852C44.6331 31.2663 44.6331 32.5326 45.4142 33.3136L52.4852 40.3847C53.2663 41.1657 54.5326 41.1657 55.3137 40.3847L62.3847 33.3136C63.1658 32.5326 63.1658 31.2663 62.3847 30.4852L55.3137 23.4141C54.5326 22.6331 53.2663 22.6331 52.4852 23.4141L45.4142 30.4852Z" fill="black"/>
<path d="M15.4142 49.4853C14.6331 48.7042 14.6331 47.4379 15.4142 46.6569L19.6568 42.4142C20.4378 41.6332 21.7042 41.6332 22.4852 42.4142L25.6921 45.6211C26.2547 46.1837 27.0178 46.4998 27.8134 46.4998H36.3286C37.1242 46.4998 37.8873 46.1837 38.4499 45.6211L41.6568 42.4142C42.4378 41.6332 43.7042 41.6332 44.4852 42.4142L48.7279 46.6569C49.5089 47.4379 49.5089 48.7042 48.7279 49.4853L44.4852 53.7279C43.7042 54.509 42.4378 54.509 41.6568 53.7279L38.3073 50.3785C37.7447 49.8159 36.9817 49.4998 36.186 49.4998H27.956C27.1604 49.4998 26.3973 49.8159 25.8347 50.3785L22.4852 53.7279C21.7042 54.509 20.4378 54.509 19.6568 53.7279L15.4142 49.4853Z" fill="black"/>
<path d="M1.41416 30.4853C0.633107 31.2663 0.633107 32.5327 1.41416 33.3137L8.48522 40.3848C9.26627 41.1658 10.5326 41.1658 11.3137 40.3848L17.3197 34.3788C17.8823 33.8162 18.6453 33.5001 19.441 33.5001H22.272C23.0677 33.5001 23.8307 33.8162 24.3933 34.3788L30.4999 40.4854C31.281 41.2664 32.5473 41.2664 33.3284 40.4854L40.3994 33.4143C41.1805 32.6332 41.1805 31.3669 40.3994 30.5859L33.3284 23.5148C32.5473 22.7338 31.281 22.7338 30.4999 23.5148L24.3933 29.6214C23.8307 30.184 23.0677 30.5001 22.272 30.5001H19.6422C18.8465 30.5001 18.0834 30.184 17.5208 29.6214L11.3137 23.4142C10.5326 22.6332 9.26627 22.6332 8.48522 23.4142L1.41416 30.4853Z" fill="black"/>
</svg>
