<svg width="64" height="64" viewBox="0 0 64 64" fill="none" xmlns="http://www.w3.org/2000/svg">
<path d="M60.3634 16.6312C60.3634 16.2739 60.1729 15.9438 59.8634 15.7652L57.3966 14.341L51.3989 17.8063L51.423 17.8203L34.5109 27.5918L32.6817 26.5357L27.9186 29.2857V34.7857L32.6817 37.5357L37.4448 34.7857V32.8261L54.3634 23.0509V44.5538L32.6817 57.0718L20.4984 50.0377C20.1889 49.8591 19.8075 49.8591 19.4981 50.0379L14.0004 53.2143L32.1817 63.7113C32.4911 63.89 32.8723 63.89 33.1817 63.7113L59.8634 48.3066C60.1729 48.128 60.3634 47.7979 60.3634 47.4406V16.6312Z" fill="black"/>
<path d="M32.1817 0.360476C32.4911 0.181843 32.8723 0.181843 33.1817 0.360476L51.3978 10.8775L45.9001 14.0539C45.5906 14.2327 45.2093 14.2328 44.8998 14.0541L32.6817 7L11 19.518V41.1758L17.1243 37.6373V23.0539L32.6817 14.0718L39.9882 18.2902L34.5202 21.4797C34.2102 21.6605 33.8271 21.6613 33.5164 21.4819L32.6817 21L23.1243 26.518V37.5539L32.6817 43.0718L42.2391 37.5539V36.2938C42.2391 35.9381 42.428 35.6092 42.7352 35.43L48.2391 32.2196V41.018L32.6817 50L20.1966 42.7917L8.00152 49.7509L5.5 48.3066C5.1906 48.128 5 47.7979 5 47.4406V16.6312C5 16.2739 5.1906 15.9438 5.5 15.7652L32.1817 0.360476Z" fill="black"/>
</svg>
