<svg width="64" height="64" viewBox="0 0 64 64" fill="none" xmlns="http://www.w3.org/2000/svg">
<g clip-path="url(#clip0_101_148)">
<path fill-rule="evenodd" clip-rule="evenodd" d="M30 17.4585V0.666992L11.3165 10.6315C6.98518 12.9416 6.15159 18.5168 9.04131 22.0127L5.3854 23.7869C-1.75102 27.2501 -1.75102 37.4171 5.3854 40.8804L8.75953 42.5178C6.2123 46.0255 7.13241 51.304 11.3165 53.5355L30 63.5V47.2383L18.4017 41.6394L32 33.0329L45.5983 41.6394L34 47.2383V63.5L52.6835 53.5355C56.8676 51.304 57.7877 46.0255 55.2405 42.5178L58.6146 40.8804C65.751 37.4171 65.751 27.2501 58.6146 23.7869L54.9587 22.0127C57.8484 18.5168 57.0148 12.9416 52.6835 10.6315L34 0.666992V17.4585L45.1566 22.8135L32 31.1348L18.8434 22.8135L30 17.4585ZM23.966 32.0835L13.1423 39.0871L7.56839 36.3821C4.18798 34.7416 4.18798 29.9257 7.56839 28.2852L13.5841 25.3658L23.966 32.0835ZM13.4878 44.8189L13.4936 44.8152L25 50.3992V55.1667L13.6695 49.1237C11.9881 48.227 11.888 45.8541 13.4878 44.8189ZM25 14.268V9.00033L13.6695 15.0433C11.9881 15.94 11.888 18.3129 13.4878 19.3481L13.9353 19.6376L25 14.268ZM40.034 32.0835L50.8577 39.0871L56.4316 36.3821C59.812 34.7416 59.812 29.9257 56.4316 28.2852L50.4159 25.3658L40.034 32.0835ZM50.5122 44.8189L50.5064 44.8152L39 50.3992V55.1667L50.3305 49.1237C52.0119 48.227 52.112 45.8541 50.5122 44.8189ZM39 14.268V9.00033L50.3305 15.0433C52.0119 15.94 52.112 18.3129 50.5122 19.3481L50.0647 19.6376L39 14.268Z" fill="black"/>
</g>
<defs>
<clipPath id="clip0_101_148">
<rect width="64" height="64" fill="white"/>
</clipPath>
</defs>
</svg>
