<svg width="64" height="64" viewBox="0 0 64 64" fill="none" xmlns="http://www.w3.org/2000/svg">
<path d="M33 12C36.3137 12 39 9.31371 39 6C39 2.68629 36.3137 0 33 0C29.6862 0 27 2.68629 27 6C27 9.31371 29.6862 12 33 12Z" fill="black"/>
<path d="M7.4833 24.196C4.61355 22.5392 3.6303 18.8696 5.28715 15.9999C6.944 13.1301 10.6135 12.1469 13.4833 13.8037C16.3531 15.4606 17.3363 19.1301 15.6795 21.9999C14.0226 24.8696 10.3531 25.8529 7.4833 24.196Z" fill="black"/>
<path d="M52.5166 50.196C49.6469 48.5392 48.6636 44.8696 50.3205 41.9999C51.9773 39.1301 55.6469 38.1469 58.5166 39.8037C61.3864 41.4606 62.3696 45.1301 60.7128 47.9999C59.0559 50.8696 55.3864 51.8529 52.5166 50.196Z" fill="black"/>
<path d="M50.3205 21.9999C51.9773 24.8696 55.6469 25.8529 58.5166 24.196C61.3864 22.5392 62.3696 18.8696 60.7128 15.9999C59.0559 13.1301 55.3864 12.1469 52.5166 13.8037C49.6469 15.4606 48.6636 19.1301 50.3205 21.9999Z" fill="black"/>
<path d="M13.4833 50.196C10.6135 51.8529 6.944 50.8696 5.28715 47.9999C3.63029 45.1301 4.61355 41.4606 7.4833 39.8037C10.3531 38.1469 14.0226 39.1301 15.6795 41.9999C17.3363 44.8696 16.3531 48.5392 13.4833 50.196Z" fill="black"/>
<path d="M39 58C39 61.3137 36.3137 64 33 64C29.6862 64 27 61.3137 27 58C27 54.6863 29.6862 52 33 52C36.3137 52 39 54.6863 39 58Z" fill="black"/>
<path d="M33 35C34.6568 35 36 33.6569 36 32C36 30.3431 34.6568 29 33 29C31.3431 29 30 30.3431 30 32C30 33.6569 31.3431 35 33 35Z" fill="black"/>
<path d="M41.3922 41.4643C39.4791 40.3598 38.8236 37.9134 39.9281 36.0002C41.0327 34.0871 43.4791 33.4316 45.3922 34.5361C47.3054 35.6407 47.9609 38.0871 46.8563 40.0002C45.7518 41.9134 43.3054 42.5689 41.3922 41.4643Z" fill="black"/>
<path d="M19.1435 24.0002C18.039 25.9134 18.6945 28.3598 20.6076 29.4643C22.5208 30.5689 24.9672 29.9134 26.0717 28.0002C27.1763 26.0871 26.5208 23.6407 24.6076 22.5361C22.6945 21.4316 20.2481 22.0871 19.1435 24.0002Z" fill="black"/>
<path d="M45.3922 29.4643C43.4791 30.5689 41.0327 29.9134 39.9281 28.0002C38.8236 26.0871 39.4791 23.6407 41.3922 22.5361C43.3054 21.4316 45.7518 22.0871 46.8563 24.0002C47.9609 25.9134 47.3054 28.3598 45.3922 29.4643Z" fill="black"/>
<path d="M19.1435 40.0002C20.2481 41.9134 22.6945 42.5689 24.6076 41.4643C26.5208 40.3598 27.1763 37.9134 26.0717 36.0002C24.9672 34.0871 22.5208 33.4316 20.6076 34.5361C18.6945 35.6407 18.039 38.0871 19.1435 40.0002Z" fill="black"/>
<path d="M37 20C37 22.2091 35.2091 24 33 24C30.7908 24 29 22.2091 29 20C29 17.7909 30.7908 16 33 16C35.2091 16 37 17.7909 37 20Z" fill="black"/>
<path d="M33 48C35.2091 48 37 46.2091 37 44C37 41.7909 35.2091 40 33 40C30.7908 40 29 41.7909 29 44C29 46.2091 30.7908 48 33 48Z" fill="black"/>
</svg>
