<svg width="64" height="64" viewBox="0 0 64 64" fill="none" xmlns="http://www.w3.org/2000/svg">
<path d="M28.4999 25C28.4999 23.3431 29.8431 22 31.4999 22H32.4999C34.1568 22 35.4999 23.3431 35.4999 25V31C35.4999 32.6569 34.1568 34 32.4999 34H31.4999C29.8431 34 28.4999 32.6569 28.4999 31V25Z" fill="black"/>
<path d="M21.4567 40.7847C21.0309 40.3447 21.1654 39.6358 21.6956 39.3297L23.5222 38.2751C23.9285 38.0405 24.4393 38.1246 24.7868 38.4397C26.5701 40.0565 29.0913 41.0001 32 41.0001C34.8903 41.0001 37.3979 40.0684 39.1792 38.4703C39.5267 38.1586 40.0349 38.0764 40.4392 38.3099L42.2688 39.3662C42.8005 39.6732 42.9339 40.3847 42.505 40.824C39.9004 43.4917 36.0982 45.0001 32 45.0001C27.8817 45.0001 24.0623 43.4769 21.4567 40.7847Z" fill="black"/>
<path fill-rule="evenodd" clip-rule="evenodd" d="M20 10.5037C20 9.05388 21.0369 7.8172 22.4749 7.63208C24.6901 7.3469 28.1716 6.99999 32 7C35.8284 7.00001 39.3099 7.34692 41.525 7.63209C42.963 7.81721 44 9.05389 44 10.5038V11.7327C51.5588 15.0788 57.2773 21.9049 59.0383 30.2815L59.955 30.6413C61.8564 31.3875 63.1191 33.2151 63.0393 35.2561C62.9677 37.0881 62.8167 39.3153 62.5 41C62.2127 42.5283 61.7235 44.3308 61.2689 45.8609C60.6617 47.9045 58.7584 49.2543 56.6265 49.2543H54.5712C51.4353 52.8653 47.0137 55.3546 41.8075 55.8876C38.3358 56.243 34.8525 56.5 32 56.5C29.1488 56.5 25.6674 56.2433 22.1973 55.8881C16.9934 55.3554 12.5755 52.8654 9.44488 49.2543H7.37341C5.24151 49.2543 3.33823 47.9045 2.73106 45.8609C2.27645 44.3308 1.7872 42.5283 1.49993 41C1.18324 39.3153 1.03225 37.0881 0.960609 35.2561C0.880792 33.2151 2.14352 31.3875 4.04489 30.6413L5.01259 30.2615C6.78656 21.9197 12.4786 15.1215 20 11.7668V10.5037ZM30.4998 15.5C20.8488 15.5 12.4222 23.42 11.4998 33C10.5885 40.7037 16.5063 48.2253 24.2448 49.0144C27.0361 49.299 29.7898 49.5 31.9999 49.5C34.2111 49.5 36.9663 49.2988 39.7589 49.014C47.5003 48.2244 53.393 40.7088 52.4997 33C51.5966 23.4248 42.6916 15.5 33.0472 15.5H30.4998Z" fill="black"/>
</svg>
