<svg width="64" height="64" viewBox="0 0 64 64" fill="none" xmlns="http://www.w3.org/2000/svg">
<path d="M64 2H16.2792C14.3725 2 12.7308 3.34584 12.3569 5.21554L10 17H57.7208C59.6275 17 61.2692 15.6542 61.6431 13.7845L64 2Z" fill="black"/>
<path d="M32.5972 42.9492C32.0041 43.3394 31.2344 42.8212 31.3729 42.1249L31.9942 39H5L7.35689 27.2155C7.73083 25.3458 9.37249 24 11.2792 24H34.9769L35.6984 20.3716C35.8191 19.7648 36.5534 19.5187 37.0153 19.9303L50 31.5L32.5972 42.9492Z" fill="black"/>
<path d="M29 46H6.27922C4.37249 46 2.73083 47.3458 2.35689 49.2155L0 61H22.7208C24.6275 61 26.2692 59.6542 26.6431 57.7845L29 46Z" fill="black"/>
</svg>
