<svg width="64" height="64" viewBox="0 0 64 64" fill="none" xmlns="http://www.w3.org/2000/svg">
<path fill-rule="evenodd" clip-rule="evenodd" d="M60.1217 16.1866C65.9207 26.2308 62.4794 39.0742 52.4352 44.8731C52.1414 45.0428 51.8452 45.2045 51.5468 45.3584L51.5692 45.3731C51.5692 45.3731 47.6721 47.6231 34.8468 50.409C25.2981 52.4832 18.1497 53.1716 15.1203 53.3879C14.705 53.4176 14.5513 52.889 14.9119 52.6808L29.4508 44.2868C29.7052 44.1399 29.7201 43.7773 29.4834 43.6033C29.2229 43.4118 28.9664 43.2138 28.7141 43.0096C28.6116 42.9266 28.4753 42.8979 28.3486 42.9342L1.03827 50.7466C0.637915 50.8611 0.350854 50.3639 0.650214 50.0744L21.0711 30.3292C21.1659 30.2376 21.2092 30.1052 21.1885 29.975C21.1378 29.6543 21.0946 29.3332 21.059 29.0119C21.0266 28.7199 20.7052 28.5514 20.4508 28.6984L5.9119 37.0924C5.55127 37.3006 5.17038 36.9032 5.40375 36.5583C7.10582 34.043 11.2762 28.1965 17.8468 20.9642C26.6721 11.2501 30.5692 9.00008 30.5692 9.00008L30.5708 9.02681C30.8532 8.84537 31.1414 8.66971 31.4352 8.50008C41.4794 2.70109 54.3228 6.14247 60.1217 16.1866ZM46.9351 35.3469C51.7181 32.5855 53.3568 26.4695 50.5954 21.6866C47.834 16.9037 41.7181 15.2649 36.9351 18.0264C32.1522 20.7878 30.5135 26.9037 33.2749 31.6866C36.0363 36.4695 42.1522 38.1083 46.9351 35.3469Z" fill="black"/>
</svg>
