<svg width="64" height="64" viewBox="0 0 64 64" fill="none" xmlns="http://www.w3.org/2000/svg">
<path fill-rule="evenodd" clip-rule="evenodd" d="M62 12.3815L40 5.87158L20.1488 11.7457L20.1769 11.8409L0.832765 6.65766C-0.0248857 9.85846 1.87461 13.1485 5.07541 14.0061L56 27.6513V32.2352L5.16065 18.6129C4.303 21.8137 6.20249 25.1037 9.40329 25.9613L55.1729 38.2252L51.1368 45.131L40 51.539L28.8633 45.131L26.3481 40.8277L40.959 44.7426C44.1598 45.6003 47.4499 43.7008 48.3075 40.5L10.276 30.3095C9.41835 33.5103 11.3178 36.8003 14.5186 37.658L18.1081 38.6198L24.4881 49.536L40 58.4613L55.5119 49.536L62 38.4348V12.3815ZM56 21.4397V16.8633L40 12.1288L31.0904 14.7652L56 21.4397Z" fill="black"/>
</svg>
