<svg width="64" height="64" viewBox="0 0 64 64" fill="none" xmlns="http://www.w3.org/2000/svg">
<path d="M25 5.5C18.6487 5.5 13.5 10.6487 13.5 17V24.7312C15.5251 22.6806 17.8886 20.965 20.5 19.6751V17C20.5 14.5147 22.5147 12.5 25 12.5H39C41.4853 12.5 43.5 14.5147 43.5 17V19.6751C46.1114 20.965 48.4749 22.6806 50.5 24.7312V17C50.5 10.6487 45.3513 5.5 39 5.5H25Z" fill="black"/>
<path fill-rule="evenodd" clip-rule="evenodd" d="M42.1182 61C43.7672 61 45.4054 60.5228 46.6362 59.4253C51.1547 55.3962 54 49.5304 54 43C54 30.8497 44.1503 21 32 21C19.8497 21 10 30.8497 10 43C10 49.5304 12.8453 55.3962 17.3638 59.4253C18.5946 60.5228 20.2328 61 21.8818 61H42.1182ZM29.8372 32H38.8372L33.395 41.2H39.982C40.3454 41.2 40.5205 41.6456 40.2543 41.893L27.4088 53.8302C27.0986 54.1185 26.6118 53.7902 26.7628 53.3946L29.8372 45.34H23.9817C23.5331 45.34 23.2431 44.8656 23.4478 44.4663L29.8372 32Z" fill="black"/>
</svg>
