<svg width="64" height="64" viewBox="0 0 64 64" fill="none" xmlns="http://www.w3.org/2000/svg">
<path d="M21.5592 38.6842L23.5728 35.2323C22.1559 33.9381 21.0379 32.3222 20.3345 30.5H13.375L21.5592 38.6842Z" fill="black"/>
<path d="M11.375 28.5H21.7994C22.4332 31.0953 24.0317 33.3125 26.1933 34.7499L24 41.0002L26.4629 43.4632L28.206 35.7938C28.5481 35.9265 28.8989 36.0417 29.2573 36.1384L27.9516 44.9518L32 49.0002L36.0484 44.9518L34.7427 36.1384C35.1011 36.0417 35.4519 35.9265 35.794 35.7938L37.537 43.4632L40 41.0002L37.8067 34.7499C39.9683 33.3125 41.5668 31.0953 42.2006 28.5H52.625L56.625 24.5H42.3936C42.1567 22.8439 41.5333 21.3125 40.6178 20H45.5L48 23H58.125L63.7593 17.3657C64.2633 16.8617 63.9063 16 63.1936 16H34.5V18.927C37.413 19.9566 39.5 22.7347 39.5 26.0002C39.5 28.3315 38.4364 30.4143 36.768 31.7899L33.6835 23H30.3165L27.232 31.7899C25.5636 30.4143 24.5 28.3315 24.5 26.0002C24.5 22.7347 26.587 19.9566 29.5 18.927V16H0.806366C0.0936419 16 -0.263293 16.8617 0.240679 17.3657L5.87499 23H16L18.5 20H23.3822C22.4667 21.3125 21.8433 22.8439 21.6064 24.5H7.37499L11.375 28.5Z" fill="black"/>
<path d="M42.4408 38.6842L40.4272 35.2323C41.8441 33.9381 42.9621 32.3222 43.6655 30.5H50.625L42.4408 38.6842Z" fill="black"/>
</svg>
