<svg width="64" height="64" viewBox="0 0 64 64" fill="none" xmlns="http://www.w3.org/2000/svg">
<path d="M19.0851 4H18.076C16.6498 4 15.3314 4.7594 14.6159 5.99313L0.695881 29.9931C-0.0239515 31.2342 -0.0239537 32.7658 0.695881 34.0069L10.71 51.2725L13.6228 46.3832C13.9942 45.7597 13.9987 44.9839 13.6346 44.3562L6.46806 32L17.4874 13.0011L23.4178 22.9557L18.7016 31.1244C18.3444 31.7432 18.3444 32.5056 18.7016 33.1244L23.4915 41.4206L15.4226 54.9648L15.4756 54.9964L14.1552 57.2126L14.6159 58.0069C15.3314 59.2406 16.6498 60 18.076 60H45.924C47.3502 60 48.6685 59.2406 49.3841 58.0069L59.2481 41H53.464C52.7508 41 52.0917 41.3797 51.7339 41.9966L44.7719 54H22.9814L28.7907 44.2487H37.9696C38.6841 44.2487 39.3444 43.8675 39.7016 43.2487L44.464 35H62.7281L63.3041 34.0069C64.0239 32.7658 64.0239 31.2342 63.3041 29.9931L49.3841 5.99313C48.6685 4.7594 47.3502 4 45.924 4H26.1352L29.1055 9.01865C29.4655 9.62692 30.1198 10 30.8266 10H44.7719L55.7919 29H44.3204L39.7016 21C39.3443 20.3812 38.6841 20 37.9696 20H28.641L20.5772 6.46436L20.5595 6.4749L19.0851 4Z" fill="black"/>
</svg>
