<svg width="64" height="64" viewBox="0 0 64 64" fill="none" xmlns="http://www.w3.org/2000/svg">
<g clip-path="url(#clip0_101_46)">
<path fill-rule="evenodd" clip-rule="evenodd" d="M29.3342 5.0625L19.093 22.436L27.3107 22.436L37.6071 4.60211C39.5366 1.26016 44.364 1.27097 46.2785 4.62152L63.0311 33.9401C65.2231 37.7763 63.8902 42.6631 60.054 44.8551L50.2477 27.6931L46.1932 34.7412L56.4919 52.5792C58.4214 55.9212 55.9983 60.0964 52.1394 60.0792L18.3725 59.928C13.9543 59.9082 10.3886 56.3105 10.4084 51.8923L30.256 51.9811L26.2324 45.0313H5.23862C1.36949 45.0313 -1.03351 40.8253 0.931282 37.4922L18.38 7.89175C20.6236 4.08554 25.528 2.81885 29.3342 5.0625ZM45.9089 23.1582C46.4587 22.2299 46.4677 21.0778 45.9324 20.141L41.9238 13.1255L32.9883 28.436L17.2701 28.436C16.208 28.436 15.2251 28.9976 14.6857 29.9126L10.4895 37.0313H28.4883L36.3437 50.5289C36.8786 51.4479 37.8599 52.0152 38.9232 52.0199L46.9522 52.0559L37.9883 36.5313L45.9089 23.1582Z" fill="black"/>
</g>
<defs>
<clipPath id="clip0_101_46">
<rect width="64" height="64" fill="white"/>
</clipPath>
</defs>
</svg>
