<svg width="64" height="64" viewBox="0 0 64 64" fill="none" xmlns="http://www.w3.org/2000/svg">
<path d="M34.4214 20.5918C34.8545 19.8813 34.8024 18.9769 34.2906 18.3208L20 0H47.5453C48.464 0 49.3319 0.420858 49.9008 1.14211L62.1364 16.6546C63.1719 17.9674 63.2815 19.7858 62.4113 21.2136L50.0088 41.5614C49.4643 42.4548 48.4935 43 47.4472 43H39.763L53.4193 20.5952C53.8534 19.883 53.7999 18.9762 53.2852 18.32L45.1911 8H36.3583L43.1475 16.6562C44.1769 17.9688 44.2838 19.7823 43.4156 21.2067L29.5759 43.9124C29.1443 44.6206 29.1945 45.5218 29.7022 46.1776L43.5 64H15.9612C15.0389 64 14.1678 63.5757 13.5991 62.8495L1.84933 47.8429C0.82174 46.5304 0.715723 44.7184 1.58326 43.2951L13.6862 23.4386C14.2308 22.5452 15.2016 22 16.2479 22H23.9321L10.5808 43.9044C10.1467 44.6166 10.2001 45.5234 10.7148 46.1796L18.4171 56H27.25L20.8527 47.8434C19.8232 46.5308 19.7164 44.7173 20.5845 43.293L34.4214 20.5918Z" fill="black"/>
</svg>
