<svg width="64" height="64" viewBox="0 0 64 64" fill="none" xmlns="http://www.w3.org/2000/svg">
<g clip-path="url(#clip0_101_51)">
<path d="M9.48868 45.0053C2.30898 32.5697 6.56973 16.6684 19.0053 9.48868C27.3174 4.68972 37.1778 5.00199 44.9472 9.45028C45.5941 9.82067 46.3904 9.8437 47.036 9.47098L51.7037 6.77607C41.729 -1.00654 27.6356 -2.42222 16.0053 4.29253C0.69998 13.1291 -4.54403 32.7 4.29253 48.0053C5.31792 49.7814 6.48785 51.4219 7.77888 52.9207L19.3881 46.2181C25.3401 51.5034 34.2335 52.6582 41.5053 48.4598C48.7771 44.2614 52.2238 35.9821 50.6225 28.1849L46.0459 30.8272C45.4003 31.2 45.0285 31.9018 44.9911 32.6463C44.7768 36.9056 42.4735 40.9727 38.5053 43.2637C32.2875 46.8535 24.3369 44.7231 20.747 38.5053L9.48868 45.0053Z" fill="black"/>
<path d="M19.0635 54.5604C18.4166 54.19 17.6203 54.167 16.9747 54.5397L12.307 57.2346C22.2817 65.0172 36.375 66.4329 48.0053 59.7182C63.3107 50.8816 68.5547 31.3107 59.7182 16.0053C58.6928 14.2293 57.5228 12.5888 56.2318 11.09L44.6225 17.7926C38.6706 12.5073 29.7771 11.3525 22.5053 15.5509C15.2335 19.7492 11.7869 28.0286 13.3881 35.8258L17.9648 33.1835C18.6104 32.8107 18.9821 32.1089 19.0196 31.3644C19.2338 27.1051 21.5372 23.038 25.5053 20.747C31.7231 17.1572 39.6738 19.2875 43.2637 25.5053L54.522 19.0053C61.7017 31.4409 57.4409 47.3423 45.0053 54.522C36.6933 59.321 26.8329 59.0087 19.0635 54.5604Z" fill="black"/>
<path d="M38.0675 28.5053C40.0005 31.8534 38.8534 36.1345 35.5053 38.0675C32.1573 40.0005 27.8762 38.8534 25.9432 35.5053C24.0102 32.1573 25.1573 27.8762 28.5053 25.9432C31.8534 24.0102 36.1345 25.1573 38.0675 28.5053Z" fill="black"/>
</g>
<defs>
<clipPath id="clip0_101_51">
<rect width="64" height="64" fill="white"/>
</clipPath>
</defs>
</svg>
