<svg width="64" height="64" viewBox="0 0 64 64" fill="none" xmlns="http://www.w3.org/2000/svg">
<g clip-path="url(#clip0_101_55)">
<path d="M38.864 24.5965L49.3099 6.85596H16.8838L0.0893555 35.8011H5.41468C6.12766 35.8011 6.78673 35.4215 7.14456 34.8048L20.1108 12.4582L39.4234 12.4582L35.6326 18.9942H23.4197L11.7835 39.0567C9.63874 39.3999 8 41.2586 8 43.5C8 45.9853 10.0147 48 12.5 48C14.9853 48 17 45.9853 17 43.5C17 42.8988 16.8821 42.3252 16.6682 41.801L20.1482 35.801L40.5578 35.801L37.3085 41.4033L25.0334 41.4033L14.7626 59.1438H47.0715L64.0177 29.9999H58.6837C57.9713 29.9999 57.3128 30.3788 56.9547 30.9946L43.8445 53.5416L24.5323 53.5416L28.3232 47.0056L40.5355 47.0056L52.7554 25.9369C54.881 25.5776 56.5 23.7279 56.5 21.5C56.5 19.0147 54.4853 17 52 17C49.5147 17 47.5 19.0147 47.5 21.5C47.5 22.1147 47.6233 22.7007 47.8464 23.2344L43.8071 30.1987L23.3975 30.1988L26.6468 24.5965H38.864Z" fill="black"/>
</g>
<defs>
<clipPath id="clip0_101_55">
<rect width="64" height="64" fill="white"/>
</clipPath>
</defs>
</svg>
