<svg width="64" height="64" viewBox="0 0 64 64" fill="none" xmlns="http://www.w3.org/2000/svg">
<path d="M60 17.1607C60 16.443 59.6154 15.7803 58.9923 15.4242L32.9923 0.567042C32.3774 0.21569 31.6226 0.21569 31.0077 0.567041L12.0086 11.4237L17.2425 14.4145L31.5039 6.26513C31.8113 6.08945 32.1887 6.08945 32.4961 6.26513L52.2431 17.5491L39.8314 24.6416L39.7908 15.6137L34.5433 12.6152L34.6238 30.5127L50.2334 39.5243V33.5273L42.531 29.0805L54.7661 22.089V22.1262L60 19.1354V17.1607Z" fill="black"/>
<path d="M60 25.117L54.7661 28.1078V44.4289C54.7661 44.7878 54.5738 45.1191 54.2622 45.2972L34.617 56.523V42.6795L42.2364 46.9888L47.4839 43.9902L32.0003 35.2332L16.5164 43.9904L21.7638 46.989L29.3831 42.6797V62.5047L31.0077 63.433C31.6226 63.7844 32.3774 63.7844 32.9923 63.433L58.9923 48.5759C59.6154 48.2198 60 47.5571 60 46.8394V25.117Z" fill="black"/>
<path d="M24.1492 53.5323V59.5139L5.00772 48.5759C4.38457 48.2198 4 47.5571 4 46.8394V17.1607C4 16.443 4.38457 15.7803 5.00772 15.4242L6.77469 14.4145L12.0086 17.4053L11.9811 17.421L24.0952 24.3434L24.1343 15.6565L29.3817 12.6579L29.3014 30.5127L13.7665 39.4812V33.4842L21.6545 28.9303L9.2339 21.8328V44.4289C9.2339 44.7878 9.42618 45.1191 9.73776 45.2972L24.1492 53.5323Z" fill="black"/>
</svg>
