<svg width="64" height="64" viewBox="0 0 64 64" fill="none" xmlns="http://www.w3.org/2000/svg">
<g clip-path="url(#clip0_101_118)">
<path d="M28.0001 0.536133L46.0793 10.9742L11.5004 31.1528C9.84307 28.2834 10.8257 24.6137 13.6951 22.9563L34.2597 11.0784L28.0001 7.46434L6.75134 19.7323V40.7138L53.569 13.6725L51.5 10.5H64L59 22L56.8508 18.7046L55.2488 19.6294V47.7323L28.0001 63.4643L9.5 53L15.5781 49.3916L15.6001 49.4042L24.3906 44.2227L44.7812 32.4453C46.4385 35.3148 45.4559 38.9845 42.5865 40.6418L21.5204 52.8093L28.0001 56.5361L49.2488 44.2682V23.0927L3.5 49.5L0.751343 47.7323V16.2682L28.0001 0.536133Z" fill="black"/>
</g>
<defs>
<clipPath id="clip0_101_118">
<rect width="64" height="64" fill="white"/>
</clipPath>
</defs>
</svg>
