<svg width="64" height="64" viewBox="0 0 64 64" fill="none" xmlns="http://www.w3.org/2000/svg">
<g clip-path="url(#clip0_101_120)">
<path d="M32 14C22.0589 14 14 22.0589 14 32C14 34.224 14.4033 36.3538 15.1409 38.3202L3.10613 45.7703C1.11483 41.5995 0 36.9299 0 32C0 14.3269 14.3269 0 32 0C46.7301 0 59.1356 9.95259 62.8588 23.5H47.8706C44.8357 17.8453 38.8669 14 32 14Z" fill="black"/>
<path d="M6.79578 51.7189L18.8295 44.2695C22.1155 47.7952 26.8003 50 32 50C38.2341 50 43.728 46.8308 46.9585 42.0156L35 30.5H63.9655C63.9884 30.9971 64 31.4972 64 32C64 49.6731 49.6731 64 32 64C21.7656 64 12.6534 59.1955 6.79578 51.7189Z" fill="black"/>
</g>
<defs>
<clipPath id="clip0_101_120">
<rect width="64" height="64" fill="white"/>
</clipPath>
</defs>
</svg>
