<svg width="64" height="64" viewBox="0 0 64 64" fill="none" xmlns="http://www.w3.org/2000/svg">
<path d="M20 12V2C20 0.895431 20.8954 0 22 0H28V12C28 20.8366 20.8366 28 12 28H1L9 20H12C16.4183 20 20 16.4183 20 12Z" fill="black"/>
<path d="M20 52V62C20 63.1046 20.8954 64 22 64H28V52C28 43.1634 20.8366 36 12 36H1L9 44H12C16.4183 44 20 47.5817 20 52Z" fill="black"/>
<path d="M42 0C43.1046 0 44 0.895431 44 2V12C44 16.4183 47.5817 20 52 20H55L63 28H52C43.1634 28 36 20.8366 36 12V0H42Z" fill="black"/>
<path d="M44 52V62C44 63.1046 43.1046 64 42 64H36V52C36 43.1634 43.1634 36 52 36H63L55 44H52C47.5817 44 44 47.5817 44 52Z" fill="black"/>
<path d="M32 39C35.866 39 39 35.866 39 32C39 28.134 35.866 25 32 25C28.134 25 25 28.134 25 32C25 35.866 28.134 39 32 39Z" fill="black"/>
</svg>
