<svg width="64" height="64" viewBox="0 0 64 64" fill="none" xmlns="http://www.w3.org/2000/svg">
<path d="M34 15C21.8497 15 12 24.8497 12 37C12 41.1773 13.1611 45.079 15.1822 48.4051L29.0292 34.843L39.9528 45.7666L48.7194 37H41V29H63V52H55V44.8615L39.9528 59.9088L28.9561 48.912L14.4985 63.0721C14.4985 63.0721 14.5469 63.0469 12.5 61C10.4531 58.9531 7.9082 55.5295 7.9082 55.5295C4.19033 50.3019 2 43.9039 2 37C2 19.3269 16.3269 5 34 5C46.2528 5 56.8971 11.8864 62.2738 22H50.0936C46.0776 17.6931 40.3533 15 34 15Z" fill="black"/>
</svg>
