<svg width="64" height="64" viewBox="0 0 64 64" fill="none" xmlns="http://www.w3.org/2000/svg">
<path d="M1.15881 35H7.20282C8.666 45.7311 17.8673 54 29 54C33.9943 54 38.5971 52.3384 42.2905 49.5336L46.564 53.8071C41.762 57.6788 35.6503 60 29 60C14.5495 60 2.65573 49.0533 1.15881 35Z" fill="black"/>
<path d="M7.20282 29C8.666 18.2689 17.8673 10 29 10C34.0734 10 38.743 11.7147 42.4655 14.6007L46.7346 10.3316C41.9072 6.37671 35.7293 4 29 4C14.5495 4 2.65573 14.9467 1.15881 29H7.20282Z" fill="black"/>
<path d="M42.6778 35H53.012L45.8388 44.5966L50.1256 48.8834L62.2979 32.5985C62.5633 32.2434 62.5633 31.7561 62.2979 31.4011L50.258 15.2934L45.9714 19.5801L53.0123 29H36.5514L36.4563 29.0952C36.8074 29.9956 37 30.9753 37 32C37 36.4183 33.4183 40 29 40C24.5817 40 21 36.4183 21 32C21 27.5817 24.5817 24 29 24C30.1916 24 31.3224 24.2605 32.3384 24.7277L36.7363 20.3299C34.52 18.8577 31.8601 18 29 18C21.268 18 15 24.268 15 32C15 39.732 21.268 46 29 46C35.7022 46 41.3045 41.2904 42.6778 35Z" fill="black"/>
</svg>
