<svg width="64" height="64" viewBox="0 0 64 64" fill="none" xmlns="http://www.w3.org/2000/svg">
<path d="M39.4999 18C37.9928 18 36.613 18.5093 35.5114 19.367C35.0379 19.7357 33.9576 20.9699 33.4984 21.6607L23.5 36.5C21.5 40 17.1858 43 12.5 43C5.59644 43 0 37.4036 0 30.5C0 23.5964 5.59644 18 12.5 18C15.2882 18 17.8632 18.9129 19.9424 20.4561L16.606 25.4608C15.4866 24.5476 14.0573 24 12.5 24C8.91015 24 6 26.9101 6 30.5C6 34.0899 8.91015 37 12.5 37C14.8697 37 17 35.5 18.079 33.8374L28.5016 18.3393C29.1822 17.3154 30.6779 15.5263 31.8251 14.633C33.943 12.9839 36.6108 12 39.4999 12C42.751 12 45.7122 13.2411 47.9356 15.2755C45.4118 15.7349 43.0824 16.7515 41.0795 18.1933C40.5738 18.067 40.0447 18 39.4999 18Z" fill="black"/>
<path d="M23.4356 45C24.9428 45 26.3226 44.4907 27.4241 43.633C27.8976 43.2643 28.978 42.0301 29.4372 41.3393L39.4355 26.5C41.4355 23 45.7498 20 50.4355 20C57.3391 20 62.9355 25.5964 62.9355 32.5C62.9355 39.4036 57.3391 45 50.4355 45C47.6473 45 45.0723 44.0871 42.9931 42.5439L46.3296 37.5392C47.449 38.4524 48.8783 39 50.4355 39C54.0254 39 56.9355 36.0899 56.9355 32.5C56.9355 28.9101 54.0254 26 50.4355 26C48.0659 26 45.9355 27.5 44.8566 29.1626L34.4339 44.6607C33.7533 45.6846 32.2577 47.4737 31.1104 48.367C28.9926 50.0161 26.3248 51 23.4356 51C20.1845 51 17.2233 49.7589 15 47.7245C17.5237 47.2651 19.8531 46.2485 21.8561 44.8068C22.3617 44.933 22.8908 45 23.4356 45Z" fill="black"/>
</svg>
