<svg width="64" height="64" viewBox="0 0 64 64" fill="none" xmlns="http://www.w3.org/2000/svg">
<path d="M15.1501 6.7002C15.8646 5.4626 17.1851 4.7002 18.6142 4.7002L46.1769 4.7002C47.606 4.7002 48.9265 5.46259 49.641 6.7002L63.4224 30.5703C64.137 31.8079 64.137 33.3327 63.4224 34.5703L52.814 52.9446L49.3499 46.9445L57.6489 32.5703L45.0222 10.7002L19.7689 10.7002L11.5127 25.0002H4.58452L15.1501 6.7002Z" fill="black"/>
<path d="M45.0817 54.3374L48.2654 59.8518C47.6471 60.2303 46.927 60.4403 46.1769 60.4403H18.6142C17.1851 60.4403 15.8646 59.678 15.1501 58.4403L1.36866 34.5703C0.99932 33.9306 0.82089 33.2141 0.833376 32.5002L30.7636 32.5C31.8377 32.5 32.8299 33.0743 33.3649 34.0056L45.0632 54.3693L45.0817 54.3374Z" fill="black"/>
</svg>
