<svg width="64" height="64" viewBox="0 0 64 64" fill="none" xmlns="http://www.w3.org/2000/svg">
<g clip-path="url(#clip0_101_80)">
<path d="M17 31.712C17 36.9499 19.1277 40.7465 21.9949 44.1598C23.0998 45.4752 24.3931 46.7415 25.8005 47.9962L25.6286 48.1393C20.9836 52.0101 18.7764 56.6726 17.7755 60.6726C7.24007 55.4359 0 44.5634 0 32C0 19.3837 7.30118 8.47259 17.9088 3.26157C18.9671 7.14376 21.1797 11.5775 25.6286 15.2849L25.8004 15.4279C24.393 16.6826 23.0998 17.9488 21.9949 19.2641C19.1277 22.6775 17 26.474 17 31.712Z" fill="black"/>
<path d="M25.499 0.660782C26.1604 3.41559 27.6235 6.53368 30.7501 9.13915C31.187 9.5032 31.6244 9.86341 32.061 10.2206C32.4975 9.86337 32.9351 9.50312 33.372 9.13903C36.4893 6.54122 37.953 3.43381 38.6172 0.684989C36.4821 0.236072 34.2686 0 32 0C29.7725 0 27.5982 0.22759 25.499 0.660782Z" fill="black"/>
<path d="M46.1987 3.31463C45.1347 7.18409 42.9221 11.5943 38.4935 15.2848C37.3114 16.2698 36.2236 17.1552 35.2207 17.9716C32.1474 20.4731 29.8704 22.3265 28.1205 24.4097C26.4305 26.4216 25.0267 28.6149 25.0267 31.712C25.0267 34.8091 26.4305 37.0023 28.1205 39.0143C29.2087 40.3097 30.5006 41.5162 32.0611 42.845C33.6215 41.5163 34.9134 40.3098 36.0015 39.0144C37.6916 37.0025 39.0953 34.8092 39.0953 31.7121C39.0953 29.0308 37.8108 26.7567 36.3693 24.889C36.0135 24.428 36.0955 23.7604 36.5608 23.4103C38.002 22.3261 39.6043 20.9985 40.9723 19.6473C41.3997 19.2252 42.1023 19.2418 42.4734 19.7142C45.0289 22.9669 47.1221 26.9139 47.1221 31.7121C47.1221 36.95 44.9944 40.7466 42.1272 44.1599C39.8427 46.8795 36.7534 49.3891 33.5136 52.0208C32.5995 52.7633 31.6734 53.5156 30.7501 54.2851C27.4134 57.0656 25.9713 60.43 25.3763 63.3136C27.5134 63.7634 29.7291 64 32 64C34.3124 64 36.5675 63.7547 38.7407 63.2888C38.3669 61.4905 37.6632 59.5067 36.3762 57.595C36.0507 57.1116 36.1563 56.4461 36.6326 56.1104C38.0066 55.1422 39.6372 53.8704 41.1487 52.4597C41.5859 52.0517 42.2841 52.0907 42.6321 52.577C44.5624 55.274 45.6914 58.0781 46.333 60.6184C56.8096 55.3611 64 44.5203 64 32C64 19.4263 56.7481 8.54641 46.1987 3.31463Z" fill="black"/>
</g>
<defs>
<clipPath id="clip0_101_80">
<rect width="64" height="64" fill="white"/>
</clipPath>
</defs>
</svg>
