<svg width="64" height="64" viewBox="0 0 64 64" fill="none" xmlns="http://www.w3.org/2000/svg">
<path fill-rule="evenodd" clip-rule="evenodd" d="M23.5001 9C23.5001 4.30558 27.3057 0.5 32.0001 0.5C36.6945 0.5 40.5001 4.30558 40.5001 9C40.5001 13.6944 36.6945 17.5 32.0001 17.5C30.0307 17.5 28.2178 16.8302 26.7766 15.7061C26.4304 15.436 25.955 15.377 25.5747 15.5965L21.007 18.2337C20.6267 18.4532 20.4402 18.8945 20.5009 19.3293C20.7539 21.1395 20.4274 23.0444 19.4427 24.7499C18.458 26.4555 16.9714 27.6907 15.2772 28.3767C14.8702 28.5415 14.5813 28.9237 14.5813 29.3628V34.637C14.5813 35.0761 14.8702 35.4583 15.2772 35.6231C16.9714 36.3091 18.458 37.5443 19.4427 39.2499C21.7899 43.3154 20.397 48.5139 16.3315 50.8611C12.266 53.2083 7.06749 51.8154 4.72028 47.7499C2.37307 43.6844 3.76601 38.4859 7.8315 36.1387C8.17588 35.9398 8.5284 35.7678 8.88662 35.622C9.29293 35.4567 9.5813 35.0747 9.5813 34.6361V29.3637C9.5813 28.925 9.29293 28.5431 8.88663 28.3777C8.52841 28.2319 8.1759 28.0599 7.83152 27.8611C3.76603 25.5139 2.37309 20.3154 4.7203 16.2499C7.06751 12.1844 12.266 10.7915 16.3315 13.1387C16.676 13.3376 17.0013 13.5569 17.3068 13.7943C17.6531 14.0635 18.1281 14.1223 18.508 13.903L23.0737 11.2669C23.4537 11.0476 23.6402 10.6069 23.5803 10.1723C23.5274 9.78911 23.5001 9.39775 23.5001 9ZM32.0001 5.5C30.0671 5.5 28.5001 7.067 28.5001 9C28.5001 10.933 30.0671 12.5 32.0001 12.5C33.9331 12.5 35.5001 10.933 35.5001 9C35.5001 7.067 33.9331 5.5 32.0001 5.5ZM13.8315 17.4688C12.1575 16.5023 10.0169 17.0759 9.05043 18.7499C8.08393 20.4239 8.65749 22.5645 10.3315 23.531C12.0055 24.4975 14.1461 23.9239 15.1126 22.2499C16.0791 20.5759 15.5055 18.4353 13.8315 17.4688ZM15.1126 41.7499C14.1461 40.0759 12.0055 39.5023 10.3315 40.4688C8.65747 41.4353 8.08391 43.5759 9.05041 45.2499C10.0169 46.9239 12.1575 47.4975 13.8315 46.531C15.5055 45.5645 16.0791 43.4239 15.1126 41.7499Z" fill="black"/>
<path fill-rule="evenodd" clip-rule="evenodd" d="M23.5001 55C23.5001 50.3056 27.3057 46.5 32.0001 46.5C33.9695 46.5 35.7825 47.1698 37.2237 48.294C37.5699 48.564 38.0453 48.6231 38.4255 48.4036L42.9933 45.7664C43.3735 45.5468 43.5601 45.1056 43.4993 44.6707C43.2463 42.8605 43.5727 40.9555 44.5575 39.2499C45.5421 37.5444 47.0286 36.3092 48.7226 35.6232C49.1296 35.4584 49.4185 35.0762 49.4185 34.6372V29.3626C49.4185 28.9235 49.1296 28.5414 48.7226 28.3766C47.0286 27.6905 45.5421 26.4554 44.5574 24.7499C42.2102 20.6844 43.6032 15.4859 47.6687 13.1387C51.7341 10.7915 56.9327 12.1844 59.2799 16.2499C61.6271 20.3154 60.2341 25.5139 56.1687 27.8611C55.8242 28.06 55.4715 28.232 55.1132 28.3779C54.7069 28.5432 54.4185 28.9252 54.4185 29.3639V34.6359C54.4185 35.0746 54.7069 35.4565 55.1132 35.6219C55.4715 35.7677 55.8242 35.9398 56.1687 36.1387C60.2342 38.4859 61.6271 43.6844 59.2799 47.7499C56.9327 51.8154 51.7342 53.2083 47.6687 50.8611C47.3243 50.6623 46.9991 50.443 46.6937 50.2056C46.3473 49.9364 45.8724 49.8777 45.4924 50.097L40.9265 52.7332C40.5465 52.9525 40.36 53.3932 40.4199 53.8278C40.4728 54.211 40.5001 54.6023 40.5001 55C40.5001 59.6944 36.6945 63.5 32.0001 63.5C27.3057 63.5 23.5001 59.6944 23.5001 55ZM32.0001 51.5C30.0671 51.5 28.5001 53.067 28.5001 55C28.5001 56.933 30.0671 58.5 32.0001 58.5C33.9331 58.5 35.5001 56.933 35.5001 55C35.5001 53.067 33.9331 51.5 32.0001 51.5ZM48.8876 41.7499C49.8541 40.0759 51.9947 39.5023 53.6687 40.4688C55.3427 41.4353 55.9163 43.5759 54.9498 45.2499C53.9833 46.9239 51.8427 47.4975 50.1687 46.531C48.4947 45.5645 47.9211 43.4239 48.8876 41.7499ZM50.1687 17.4688C51.8427 16.5023 53.9832 17.0759 54.9497 18.7499C55.9162 20.4239 55.3427 22.5645 53.6687 23.531C51.9946 24.4975 49.8541 23.9239 48.8876 22.2499C47.9211 20.5759 48.4946 18.4353 50.1687 17.4688Z" fill="black"/>
</svg>
