<svg width="64" height="64" viewBox="0 0 64 64" fill="none" xmlns="http://www.w3.org/2000/svg">
<path d="M43.8381 20.6553C47.2517 21.0822 50.7791 19.6356 52.8618 16.6046C55.8355 12.2769 54.7379 6.35804 50.4102 3.38437C46.0825 0.410701 40.1636 1.50833 37.1899 5.83601C35.1071 8.86717 35.0216 12.679 36.6444 15.7126C37.1039 16.5716 37.1621 17.6287 36.6103 18.4316C35.9935 19.3293 34.822 19.6341 33.7898 19.2864C26.7251 16.9072 18.661 19.3715 14.2299 25.8201C8.87731 33.6099 10.853 44.2639 18.6429 49.6165C24.7349 53.8025 32.5787 53.5065 38.2685 49.4527C39.2927 48.7231 40.6718 48.6031 41.7082 49.3153C42.6222 49.9433 43.024 51.0678 42.9651 52.1753C42.7777 55.6923 44.3714 59.2204 47.4867 61.3611C52.2472 64.6321 58.758 63.4247 62.029 58.6643C65.3001 53.9039 64.0927 47.3931 59.3322 44.122C55.5406 41.5167 50.6385 41.7524 47.1474 44.3617C46.4477 44.8847 45.4862 44.9899 44.7662 44.4952C44.0057 43.9726 43.7705 42.9646 44.1272 42.1136C46.591 36.2368 45.5499 29.4627 41.5253 24.6018C40.8306 23.7627 40.6951 22.5599 41.312 21.6621C41.8637 20.8592 42.8714 20.5344 43.8381 20.6553Z" fill="black"/>
<path d="M3.48522 55.7393C6.51459 57.8209 10.6578 57.0526 12.7394 54.0232C14.821 50.9938 14.0526 46.8506 11.0233 44.769C7.99388 42.6874 3.85065 43.4558 1.76908 46.4852C-0.312491 49.5145 0.455853 53.6578 3.48522 55.7393Z" fill="black"/>
</svg>
