<svg width="64" height="64" viewBox="0 0 64 64" fill="none" xmlns="http://www.w3.org/2000/svg">
<path d="M0 25.3662V17.2748C0.359382 17.32 1.10593 17.438 1.10593 17.438C4.4249 18.0005 8.45638 19.3521 12.1835 22.3537C12.6064 22.6943 12.6531 23.3148 12.3048 23.7315L8.4621 28.3292C8.09908 28.7635 7.4498 28.8072 7.00415 28.4581C4.6788 26.6368 2.18247 25.7651 0 25.3662Z" fill="black"/>
<path d="M0 46.9821V38.8907C2.96839 38.348 6.51741 36.931 9.42711 33.4394C10.1965 32.516 10.9488 31.59 11.6913 30.676C14.323 27.4361 16.8327 24.3467 19.5522 22.0623C22.9655 19.1951 26.7621 17.0674 32.0001 17.0674C37.238 17.0674 41.0346 19.1951 44.4479 22.0623C45.7633 23.1672 47.0295 24.4604 48.2842 25.8678L48.4272 25.696C52.9417 20.2787 58.5331 18.1772 62.8942 17.438C63.2716 17.374 63.6407 17.32 64 17.2748V25.3662C61.0316 25.9088 57.4827 27.3259 54.573 30.8175C54.2089 31.2544 53.8487 31.6919 53.4915 32.1284C53.8487 32.565 54.2089 33.0025 54.573 33.4394C57.4827 36.9309 61.0316 38.348 64 38.8906V46.982C63.6407 46.9368 63.2716 46.8828 62.8942 46.8188C58.5331 46.0797 52.9417 43.9782 48.4272 38.5608C47.4422 37.3788 46.5568 36.291 45.7404 35.288C43.2389 32.2148 41.3856 29.9378 39.3024 28.1879C37.2904 26.4979 35.0972 25.0941 32.0001 25.0941C28.9029 25.0941 26.7097 26.4979 24.6978 28.1879C23.4024 29.276 22.1959 30.568 20.8671 32.1284C22.1959 33.6889 23.4024 34.9808 24.6978 36.0689C26.7097 37.7589 28.9029 39.1627 32.0001 39.1627C35.0972 39.1627 37.2904 37.7589 39.3024 36.0689C39.3724 36.0101 39.4421 35.9507 39.5117 35.8907C39.9515 35.511 40.6219 35.5509 40.991 35.9996C42.2296 37.5054 43.5103 39.038 44.8444 40.4987C45.2185 40.9082 45.2 41.5457 44.7813 41.9096C44.6705 42.0059 44.5594 42.1009 44.4479 42.1946C41.0346 45.0617 37.238 47.1894 32.0001 47.1894C26.7621 47.1894 22.9655 45.0617 19.5522 42.1946C18.2369 41.0896 16.9706 39.7964 15.7159 38.389L15.5729 38.5608C11.0584 43.9782 5.46707 46.0797 1.10593 46.8188C0.728463 46.8828 0.359382 46.9368 0 46.9821Z" fill="black"/>
</svg>
