<svg width="64" height="64" viewBox="0 0 64 64" fill="none" xmlns="http://www.w3.org/2000/svg">
<path d="M31.8377 61.0431L58.2833 34.5975C65.4942 27.3866 65.4637 15.6899 58.2458 8.47201C51.028 1.25417 39.3312 1.22368 32.1204 8.43451L31.8377 8.71721L31.555 8.43451C24.3441 1.22368 12.6474 1.25417 5.42953 8.47201C-1.78831 15.6899 -1.8188 27.3866 5.39204 34.5975L24.077 53.2824L25 54L43.2957 35.7741L46.9132 32.0694L49.7714 28.9594C51.1918 27.43 52.4119 25.4623 52.8392 23.2806C53.2899 20.9802 52.8285 18.4847 50.9268 16.4398C49.0333 14.4036 46.6019 13.7466 44.2446 14.085C42.0382 14.4017 40.01 15.5566 38.3796 16.9136L38.3133 16.9688L32.0581 22.8155L32 22.7574L31.9419 22.8155L25.6867 16.9688L25.6204 16.9136C23.99 15.5566 21.9618 14.4017 19.7554 14.085C17.3981 13.7466 14.9667 14.4036 13.0732 16.4398C11.1715 18.4847 10.7101 20.9802 11.1608 23.2806C11.5881 25.4623 12.8082 27.43 14.2286 28.9594L17.0868 32.0694L24.2752 39.4312L28.5681 35.2394L21.4431 27.9426L18.6348 24.8868L18.6287 24.8803C17.7248 23.9082 17.2023 22.9108 17.0488 22.1272C16.918 21.4592 17.0392 20.9857 17.4669 20.5258C17.9027 20.0572 18.3136 19.9395 18.9028 20.0241C19.6292 20.1284 20.6277 20.5789 21.7196 21.4737L27.9515 27.2986L28.0019 27.2446L32 31.2426L35.998 27.2446L36.0485 27.2986L42.2804 21.4737C43.3723 20.5789 44.3708 20.1284 45.0972 20.0241C45.6864 19.9395 46.0973 20.0572 46.5331 20.5258C46.9608 20.9857 47.082 21.4592 46.9512 22.1272C46.7977 22.9108 46.2752 23.9082 45.3713 24.8803L45.3652 24.8868L42.5569 27.9426L39.0176 31.5672L25.0008 45.721L9.63468 30.3548C4.78068 25.5008 4.78376 17.6031 9.67217 12.7147C14.5606 7.82624 22.4583 7.82316 27.3123 12.6772L31.9573 16.5L36.363 12.6772C41.217 7.82316 49.1148 7.82624 54.0032 12.7147C58.8916 17.6031 58.8947 25.5008 54.0407 30.3548L42.0989 42.2967L41.7173 42.6896L27.7086 56.914L31.8377 61.0431Z" fill="black"/>
</svg>
