<svg width="64" height="64" viewBox="0 0 64 64" fill="none" xmlns="http://www.w3.org/2000/svg">
<g clip-path="url(#clip0_101_93)">
<path d="M0 32C0 19.7473 6.88641 9.10291 17 3.72621V9.72571C17 10.3748 16.6817 10.9794 16.1672 11.375C9.98465 16.1282 6 23.5988 6 32C6 32.8433 6.04015 33.6772 6.11864 34.4999L18 34.5C24.0752 34.5 29 39.4249 29 45.5V53.2053C26.8853 52.9088 24.8696 52.3035 23 51.4363V45.5C23 42.7386 20.7614 40.5 18 40.5L1.14118 40.5C0.397297 37.7933 0 34.943 0 32Z" fill="black"/>
<path d="M23 1.28301C25.8549 0.447902 28.8752 0 32 0C44.2528 0 54.8971 6.88641 60.2738 17H54.2743C53.6252 17 53.0206 16.6817 52.625 16.1672C47.8718 9.98465 40.4012 6 32 6C30.9854 6 29.9843 6.05812 29 6.17121V18.25C29 24.3251 24.0752 29.25 18 29.25L10.7611 29.25C11.0319 27.1384 11.6101 25.1229 12.4497 23.25L18 23.25C20.7614 23.25 23 21.0114 23 18.25L23 1.28301Z" fill="black"/>
<path d="M62.717 23.2501C63.5521 26.105 64 28.8752 64 32C64 44.6525 56.6569 55.5899 46 60.7831V55.007C46 54.3252 46.3508 53.6949 46.9091 53.3034C53.6156 48.6012 58 40.8126 58 32C58 31.0712 57.9513 30.1537 57.8563 29.2501L45 29.25C38.9249 29.25 34 24.3251 34 18.25V10.6784C36.103 10.8732 38.1178 11.372 40 12.1306V18.25C40 21.0114 42.2386 23.25 45 23.25L62.717 23.2501Z" fill="black"/>
<path d="M40 62.9919C37.443 63.65 34.7624 64 32 64C19.5464 64 8.75433 56.8859 3.46603 46.5H9.35089C10.0164 46.5 10.6341 46.8344 11.028 47.3709C15.7598 53.8162 23.3913 58 32 58C32.6729 58 33.3399 57.9744 34 57.9242V45.5C34 39.4249 38.9249 34.5 45 34.5L53.2694 34.5C53.0242 36.6086 52.4727 38.6239 51.6605 40.5L45 40.5C42.2386 40.5 40 42.7386 40 45.5L40 62.9919Z" fill="black"/>
</g>
<defs>
<clipPath id="clip0_101_93">
<rect width="64" height="64" fill="white"/>
</clipPath>
</defs>
</svg>
