<svg width="64" height="64" viewBox="0 0 64 64" fill="none" xmlns="http://www.w3.org/2000/svg">
<path d="M47.705 45.2185L31.8804 61.0431L16.1461 45.3088C17.888 44.2681 19.344 42.7984 20.3682 41.0456L31.8804 52.5578L43.5445 40.8938C44.5439 42.663 45.9794 44.1532 47.705 45.2185Z" fill="black"/>
<path d="M60.3913 32.1408C65.4482 24.9358 64.7344 14.9179 58.2886 8.47201C51.0707 1.25417 39.3739 1.22368 32.1631 8.43451L31.8804 8.71721L31.5977 8.43451C24.3869 1.22368 12.6901 1.25417 5.47226 8.47201C-1.03635 14.9806 -1.70069 25.1312 3.51884 32.3504C3.18437 33.1677 3 34.0623 3 35C3 38.866 6.13401 42 10 42C10.8473 42 11.6593 41.8495 12.411 41.5737C14.1626 40.9311 15.586 39.6084 16.3612 37.9256C16.4559 37.72 16.541 37.509 16.6158 37.2932C16.8647 36.5747 17 35.8032 17 35C17 31.134 13.866 28 10 28C9.30832 28 8.64007 28.1003 8.00901 28.2872C4.90936 23.468 5.47183 16.9577 9.7149 12.7147C14.6033 7.82624 22.5011 7.82316 27.3551 12.6772L32 16.5L36.4057 12.6772C41.2597 7.82316 49.1575 7.82624 54.0459 12.7147C58.2724 16.9411 58.847 23.417 55.7881 28.2305C55.2173 28.0801 54.618 28 54 28C50.134 28 47 31.134 47 35C47 35.7366 47.1138 36.4467 47.3247 37.1135C47.9595 39.1203 49.474 40.736 51.4158 41.5077C52.2153 41.8255 53.0873 42 54 42C57.866 42 61 38.866 61 35C61 33.9815 60.7825 33.0138 60.3913 32.1408Z" fill="black"/>
</svg>
