<svg width="64" height="64" viewBox="0 0 64 64" fill="none" xmlns="http://www.w3.org/2000/svg">
<path fill-rule="evenodd" clip-rule="evenodd" d="M33.9736 2L1.84073 20.5519L0.5 21.5V24.3966L20.3271 35.8438L23.1413 37.5285L23.198 37.5558L23.2135 37.5646C23.2453 37.5829 23.3085 37.6209 23.3951 37.6807C23.5687 37.8007 23.8328 38.0061 24.1282 38.3148C24.7103 38.9231 25.4392 39.9575 25.8288 41.6059C26.5202 44.5306 25.2963 45.9439 24.6548 46.4014C24.6406 46.3998 24.6248 46.3978 24.6073 46.3952C24.3878 46.3631 24.0825 46.2715 23.7245 46.1225C23.3796 45.979 23.055 45.8116 22.8115 45.6761C22.6919 45.6095 22.5967 45.5533 22.5342 45.5154L22.5058 45.4982L22.467 45.4742L22.4569 45.4679L22.4557 45.4671L22.4164 45.4419L0.5 32.7884V37.4205L20.2461 48.821L23.0603 50.5056L23.117 50.533L23.1325 50.5417C23.1643 50.5601 23.2274 50.598 23.314 50.6578C23.4877 50.7779 23.7518 50.9832 24.0472 51.2919C24.6293 51.9002 25.3581 52.9346 25.7478 54.583C26.4391 57.5077 25.2153 58.921 24.5737 59.3785C24.5596 59.3769 24.5438 59.3749 24.5263 59.3723C24.3068 59.3402 24.0015 59.2486 23.6434 59.0996C23.2985 58.9562 22.9739 58.7888 22.7305 58.6532C22.6108 58.5866 22.5157 58.5304 22.4531 58.4926L22.408 58.465L22.3859 58.4513L22.3758 58.445L22.3747 58.4442L22.3737 58.4437L22.3726 58.4429L22.3354 58.419L0.5 45.8123V50.4311L20.2597 61.8394L20.2659 61.8433L20.3028 61.8662C20.3162 61.8745 20.3309 61.8835 20.347 61.8933C20.3584 61.9003 20.3705 61.9077 20.3833 61.9154C20.481 61.9745 20.6177 62.0551 20.7845 62.1479C21.1138 62.3313 21.58 62.5736 22.107 62.7928C22.6209 63.0066 23.2688 63.2309 23.9469 63.3301C24.5877 63.424 25.5412 63.4488 26.4312 62.9349C27.0733 62.5641 28.5975 61.6846 28.5975 61.6846C28.8586 62.1367 28.5965 61.6852 28.5965 61.6852L28.5975 61.6846L59.7769 43.685C61.8011 42.5162 64.1604 39.3805 62.9862 34.4129C62.4474 32.1339 61.4265 30.5317 60.4567 29.4632C61.645 27.8193 62.4058 25.3411 61.632 22.0673C61.0609 19.6515 59.9481 17.9962 58.9286 16.9309C58.4233 16.4028 57.9467 16.0254 57.5798 15.7718C57.3961 15.6448 57.239 15.5483 57.1182 15.4788C57.0578 15.444 57.0063 15.416 56.9649 15.3942L56.9366 15.3794L52.7318 13.0679L52.6934 13.1377L33.9736 2ZM26.4481 29.2844L12.6584 21.0801L19.2922 17.2501L33.0818 25.4544L26.4481 29.2844Z" fill="black"/>
</svg>
