<svg width="64" height="64" viewBox="0 0 64 64" fill="none" xmlns="http://www.w3.org/2000/svg">
<path d="M57 12L33.7309 0.830858C32.6367 0.305648 31.3633 0.305648 30.2691 0.830859L7 12V38L9.82843 35.1716C10.5786 34.4214 11 33.404 11 32.3432V13.92L30.2691 23.1692C31.3633 23.6944 32.6367 23.6944 33.7309 23.1692L57 12Z" fill="black"/>
<path fill-rule="evenodd" clip-rule="evenodd" d="M14 30.9999V20.3599L26.9375 26.5699L32 34.5L37.0625 26.5699L50 20.3599V63.9999H49C29.67 63.9999 14 50.3298 14 30.9999ZM27.25 34.75C27.25 36.8211 25.5711 38.5 23.5 38.5C21.4289 38.5 19.75 36.8211 19.75 34.75C19.75 32.6789 21.4289 31 23.5 31C25.5711 31 27.25 32.6789 27.25 34.75ZM44.25 34.75C44.25 36.8211 42.5711 38.5 40.5 38.5C38.4289 38.5 36.75 36.8211 36.75 34.75C36.75 32.6789 38.4289 31 40.5 31C42.5711 31 44.25 32.6789 44.25 34.75Z" fill="black"/>
</svg>
