<svg width="64" height="64" viewBox="0 0 64 64" fill="none" xmlns="http://www.w3.org/2000/svg">
<path fill-rule="evenodd" clip-rule="evenodd" d="M33.8537 18.2472C33.8499 18.2372 33.8458 18.2267 33.8414 18.2157C33.8171 18.1541 33.7848 18.0764 33.7431 17.984C33.6598 17.7992 33.5393 17.556 33.3712 17.2659C33.0348 16.6851 32.51 15.9203 31.7169 15.0645C30.1244 13.3461 27.4919 11.3057 23.2288 9.63758C18.9684 7.97052 15.3384 7.55838 12.7363 7.57623C11.4371 7.58515 10.3968 7.70117 9.66409 7.82005C9.66409 7.82005 8.5 8 7 8.5V43.2389L9.22466 42.9874L9.23373 42.9864L9.28459 42.9812C9.33206 42.9765 9.40623 42.9694 9.50492 42.9609C9.7024 42.944 9.9975 42.9216 10.3729 42.9014C11.1249 42.861 12.1923 42.83 13.4379 42.8687C15.9597 42.947 19.0757 43.3078 21.7712 44.3626C24.4434 45.4082 26.5989 47.0979 28.1051 48.5638C28.2578 48.7124 28.4033 48.8582 28.5413 49H4V14.5L0 18.5V53H30C30 53 32.7224 52.9912 33 53C33.5553 53.0176 34.0326 53.0625 35.0663 52.9958C37.1343 52.8624 40.1388 52.4662 44.0153 51.4324C48.198 50.317 51.3615 47.9615 53.4533 45.9372C54.5046 44.9198 55.3033 43.9688 55.8438 43.2653C56.1145 42.9129 56.3219 42.6207 56.4652 42.4109C56.5368 42.306 56.5926 42.2215 56.6323 42.1601L56.6946 42.0623L57 41.566V9.99995L53.4262 8.76959L53.4244 8.76805L53.421 8.77231L53.3927 8.8076C53.3654 8.84136 53.3214 8.89519 53.2611 8.96699C53.1405 9.11065 52.9553 9.32581 52.7093 9.59567C52.2167 10.1361 51.4845 10.8917 50.5443 11.7298C48.6522 13.4162 45.9778 15.3827 42.7712 16.6375C39.5072 17.9146 36.8695 18.2484 35.0924 18.2774C34.6178 18.2851 34.2035 18.2711 33.8537 18.2472ZM11 11.6748V38.8714C11.7241 38.8484 12.5947 38.8406 13.5621 38.8706C16.2903 38.9553 19.9243 39.3445 23.2288 40.6376C26.028 41.7329 28.3083 43.3647 30 44.8655V19.4328C29.9746 19.385 29.9447 19.3308 29.91 19.2709C29.7152 18.9346 29.365 18.4113 28.7831 17.7834C27.6256 16.5344 25.5081 14.8248 21.7712 13.3626C18.0316 11.8993 14.9116 11.5614 12.7637 11.5761C12.0722 11.5809 11.4803 11.6222 11 11.6748ZM34 22.2614V49.0438C34.2446 49.0358 34.5143 49.0231 34.8087 49.0041C36.6157 48.8875 39.3612 48.5337 42.9847 47.5675C46.302 46.6829 48.8885 44.7884 50.6717 43.0628C51.5579 42.2051 52.228 41.4061 52.6718 40.8283C52.8009 40.6603 52.9104 40.5117 53 40.3865V14.8978C50.8998 16.7403 47.9006 18.9257 44.2288 20.3624C40.4928 21.8243 37.3805 22.2406 35.1576 22.2768C34.739 22.2837 34.3526 22.277 34 22.2614Z" fill="black"/>
<path d="M64 18.5V53H49.5L54.5 49H60V14.5L64 18.5Z" fill="black"/>
</svg>
