<svg width="64" height="64" viewBox="0 0 64 64" fill="none" xmlns="http://www.w3.org/2000/svg">
<path d="M33 29C33 31.2091 31.2091 33 29 33C26.7909 33 25 31.2091 25 29C25 26.7909 26.7909 25 29 25C31.2091 25 33 26.7909 33 29Z" fill="black"/>
<path d="M50 29C50 31.2091 48.2091 33 46 33C43.7909 33 42 31.2091 42 29C42 26.7909 43.7909 25 46 25C48.2091 25 50 26.7909 50 29Z" fill="black"/>
<path fill-rule="evenodd" clip-rule="evenodd" d="M46.807 56.0972C55.8804 50.9381 62 41.1837 62 30C62 13.4315 48.5685 0 32 0C15.4315 0 2 13.4315 2 30C2 42.3019 9.40457 52.8744 20 57.5037V64C29.6473 64 42.5 59 46.807 56.0972ZM20 29C20 24.0294 24.0294 20 29 20C32.9315 20 36.2743 22.5209 37.5 26.0345C38.7257 22.5209 42.0685 20 46 20C50.9706 20 55 24.0294 55 29C55 29.3063 54.9847 29.6091 54.9548 29.9076L55 29.9088C53.6803 45.1486 38 55 21 55H20V29Z" fill="black"/>
</svg>
