<svg width="64" height="64" viewBox="0 0 64 64" fill="none" xmlns="http://www.w3.org/2000/svg">
<path d="M52.5 12L48.6961 14.1962L40.9357 9.64515L32.0075 14.7999H31.8639L23.0338 9.70177L18.454 12.346L14.3146 10.117L31.3377 0.288699C31.6471 0.110066 32.0283 0.110066 32.3377 0.288698L35.8377 2.30942L27.0338 7.39237L31.9357 10.2225L40.7396 5.13955L52.5 12Z" fill="black"/>
<path d="M4 16.7671C4 16.3918 4.21022 16.048 4.54436 15.877L6.15001 15.0551L15 20L23.5697 14.815L32.9357 20.2225L42.5972 14.6445L46.5972 16.9539L33.0075 24.7998H32.8639L23.5697 19.4338L18.9793 22.3213L27.933 27.5443L23.9433 29.8478L4 18.2142V16.7671Z" fill="black"/>
<path d="M4.2651 24.0754L8.06903 26.2716L8.00786 35.2678L16.9361 40.4225L17.0079 40.5469L17.0079 50.743L21.5877 53.3872L21.7271 58.0865L4.70394 48.2582C4.39454 48.0795 4.20394 47.7494 4.20394 47.3921L4.20394 43.3507L13.0079 48.4336L13.0079 42.7734L4.20394 37.6904L4.2651 24.0754Z" fill="black"/>
<path d="M32.6435 63.6941C32.3185 63.8818 31.9157 63.8716 31.6005 63.6678L30.0859 62.6882L29.9433 52.5514L21.1681 47.7223L21.1681 36.9074L11.5067 31.3293L11.5067 26.7105L25.0963 34.5565L25.1681 34.6808L25.1681 45.4129L29.9639 47.9445L30.0103 37.5789L34.0001 39.8824L33.8967 62.9706L32.6435 63.6941Z" fill="black"/>
<path d="M59.3679 18.3322L59.459 16.5307C59.478 16.1559 59.2854 15.8019 58.9603 15.6142L57.7071 14.8907L37.6605 26.3453L37.6605 30.9522L46.6605 25.8096L46.866 31.2288L37.5718 36.5948L37.5 36.7191L37.5 52.4111L41.5 50.1017V38.9456L50.866 33.5382L50.6605 23.524L59.3679 18.3322Z" fill="black"/>
<path d="M38.8387 55.6076V60L50.6602 53.2455L50.6602 43.0796L55.5622 40.2495V50.4154L59.0622 48.3946C59.3716 48.216 59.5622 47.8859 59.5622 47.5286L59.5622 27.8719L55.5622 30.3423L55.5622 35.6307L46.732 40.7288L46.6602 40.8531V51.1625L38.8387 55.6076Z" fill="black"/>
</svg>
