<svg width="64" height="64" viewBox="0 0 64 64" fill="none" xmlns="http://www.w3.org/2000/svg">
<path fill-rule="evenodd" clip-rule="evenodd" d="M29.6344 2.42901L33.6987 0.156738L51.9654 10.703L51.9718 10.7064C52.002 10.7224 52.0428 10.7445 52.093 10.7721C52.1931 10.8272 52.3312 10.9053 52.495 11.0032C52.8185 11.1968 53.2613 11.4794 53.7148 11.8262C54.1568 12.1643 54.675 12.6133 55.1 13.1509C55.5017 13.6589 55.9999 14.4723 55.9999 15.5C55.9999 15.6611 55.9926 15.8281 55.9774 16.0002C55.9999 16.0002 55.9999 16.0003 55.9999 16.0003L56.0015 51.0035C56.0014 53.3408 54.4655 56.952 49.5763 58.4188C47.3333 59.0918 45.4353 59.0087 44.025 58.7032C43.1955 60.5541 41.4298 62.4521 38.2076 63.4188C35.83 64.1321 33.8401 63.996 32.4078 63.6459C31.6977 63.4723 31.1326 63.2482 30.7295 63.0573C30.5277 62.9617 30.3656 62.8739 30.245 62.804C30.1847 62.7691 30.1346 62.7385 30.0951 62.7136L30.0681 62.6964L7 49.5V15.0834L10.7892 12.965L29.4863 23.7598L32.3524 25.3546L32.4044 25.39L32.4198 25.3991C32.4516 25.4175 32.516 25.4532 32.6111 25.4982C32.8019 25.5886 33.1118 25.7147 33.5268 25.8161C34.3447 26.0161 35.6049 26.1301 37.2273 25.6434C39.4353 24.9809 40.3098 23.7872 40.6314 22.913L40.6313 22.0395C40.4948 21.8966 40.3109 21.7341 40.0866 21.5626C39.7899 21.3357 39.4826 21.1382 39.2435 20.9952C39.126 20.9249 39.0297 20.8706 38.9657 20.8353C38.9338 20.8178 38.9102 20.8051 38.8964 20.7977L38.8859 20.7922L38.8837 20.791L38.8825 20.7904L38.8431 20.7701L18.1735 8.83653L22.25 6.55744L40.6841 17.2004L43.5503 18.7953L43.6024 18.8307L43.6177 18.8398C43.6495 18.8582 43.7139 18.8939 43.8091 18.9389C43.9998 19.0293 44.3097 19.1553 44.7248 19.2568C45.5426 19.4568 46.8028 19.5708 48.4252 19.084C51.3037 18.2204 51.9158 16.4539 51.9912 15.6695C51.9828 15.6581 51.9731 15.6454 51.9621 15.6316C51.8246 15.4575 51.5926 15.2389 51.2846 15.0033C50.9879 14.7764 50.6806 14.5789 50.4415 14.4359C50.3239 14.3656 50.2277 14.3113 50.1637 14.276C50.1318 14.2584 50.1082 14.2458 50.0943 14.2384L50.0838 14.2329L50.0816 14.2317L50.0804 14.2311L50.0411 14.2108L29.6344 2.42901ZM49.5747 22.9153C50.4989 22.638 51.3033 22.2841 52.0002 21.8767L52.0015 51.0033C52.0015 51.6664 51.5376 53.6542 48.4268 54.5875C46.8044 55.0743 45.5442 54.9603 44.7264 54.7603C44.6946 54.7525 44.6634 54.7446 44.6328 54.7366L44.6314 23.4712C44.6436 23.4195 44.655 23.368 44.6658 23.3167C45.9902 23.5134 47.6563 23.4909 49.5747 22.9153ZM38.3767 29.4746C39.2265 29.2197 39.9749 28.9 40.6316 28.5335L40.6329 56.0033C40.6328 56.6664 40.169 58.6542 37.0582 59.5875C35.4358 60.0743 34.1756 59.9603 33.3577 59.7603C32.9427 59.6588 32.6328 59.5328 32.442 59.4424C32.3469 59.3973 32.2825 59.3617 32.2507 59.3432L32.2353 59.3342L32.2137 59.3195L32 59.1901V29.5412C32.18 29.5975 32.3724 29.6517 32.5769 29.7017C34.0092 30.0519 35.9991 30.188 38.3767 29.4746ZM26 31.84L12 24V31.66L26 39.5V31.84Z" fill="black"/>
</svg>
