<svg width="64" height="64" viewBox="0 0 64 64" fill="none" xmlns="http://www.w3.org/2000/svg">
<path d="M34.9621 4H42.3881L60 21.6152V55.6234C60 58.0405 58.0409 60 55.6242 60H21.6225L4 42.3742V34.9469L23.7975 54.7481H39.9474C41.969 52.0402 44.3782 49.2514 47.1057 46.5233C49.6389 43.9897 52.2245 41.7307 54.7491 39.8017V23.7906L34.9621 4Z" fill="black"/>
<path d="M17.6136 4H25.0395L48.3799 27.3455C46.9841 28.2693 45.5435 29.316 44.0813 30.4735L17.6136 4Z" fill="black"/>
<path d="M4 7.71395V4H7.7127L38.7856 35.0793C38.2575 35.5808 37.7301 36.0946 37.2046 36.6202C36.4771 37.3479 35.7721 38.0792 35.091 38.8113L4 7.71395Z" fill="black"/>
<path d="M4 25.0444V17.6169L30.5399 44.1624C29.3935 45.6476 28.3645 47.1067 27.4655 48.5148L4 25.0444Z" fill="black"/>
</svg>
