<svg width="64" height="64" viewBox="0 0 64 64" fill="none" xmlns="http://www.w3.org/2000/svg">
<path d="M21.9999 18C24.2091 18 25.9999 16.2091 25.9999 14C25.9999 11.7909 24.2091 10 21.9999 10C19.7908 10 17.9999 11.7909 17.9999 14C17.9999 16.2091 19.7908 18 21.9999 18Z" fill="black"/>
<path fill-rule="evenodd" clip-rule="evenodd" d="M2.05406 49.5C1.25922 49.5 0.788589 50.3787 1.26144 51.0176C7.09061 58.8937 16.4489 64 26.9998 64C27.0935 64 27.1872 63.9996 27.2807 63.9988C27.3537 63.9996 27.4268 64 27.5 64C28.0973 64 28.6884 63.9731 29.272 63.9206C45.2197 62.8018 57.9442 49.9973 58.9373 34.0153C58.9788 34.6715 58.9999 35.3333 58.9999 36C58.9999 43.9004 56.0445 51.1105 51.179 56.5851C49.3941 58.5935 49.2067 61.7069 51.1067 63.6068C58.9882 57.003 63.9999 47.0868 63.9999 36C63.9999 22.805 56.9009 11.268 46.314 5H56.0559C56.928 5 57.7762 4.71499 58.4713 4.18837L63.9999 0H27.9999C27.8281 0 27.6564 0.00120447 27.4851 0.00360542C27.3236 0.00120463 27.1618 0 26.9998 0C17.9788 0 9.82968 3.73277 4.01271 9.73799L3.99994 10C3.9827 10.3318 3.99994 10.6639 3.99994 10.9999C3.99994 21.4933 12.5065 29.9999 22.9999 29.9999C23.9651 29.9999 25.4999 30 26.9999 30L26.9996 30.0085C27.1657 30.0028 27.3326 30 27.5 30C35.5082 30 42 36.4919 42 44.5C42 47.3428 41.1819 49.9946 39.7683 52.2327L21.207 33.6715C20.5771 33.0415 19.4999 33.4877 19.4999 34.3786V49.4999L2.05406 49.5ZM26.6619 5.00207C19.8916 5.0851 13.7212 7.66002 9.02545 11.8521C9.46587 19.1872 15.5541 24.9999 22.9999 24.9999C30.7319 24.9999 36.9999 18.7319 36.9999 10.9999C36.9999 9.48072 36.758 8.01804 36.3104 6.64832C33.5511 5.63462 30.5805 5.05855 27.4825 5.00423C27.2075 5.00873 26.9333 5.01681 26.6601 5.02843L26.6619 5.00207ZM26.0026 58.9236C26.4261 58.9671 26.855 58.9923 27.2885 58.9985C27.818 58.9929 28.3439 58.9721 28.8656 58.9365C31.6939 58.6723 34.2863 57.5958 36.4071 55.9426L24.4999 44.0354V54.4999H12.0695C16.0868 57.171 20.8604 58.7949 26.0006 58.9819L26.0026 58.9236ZM53.9998 32C53.9998 39.641 50.8257 46.5407 45.7241 51.4525C46.5485 49.2929 47 46.9492 47 44.5C47 36.1415 41.7411 29.0113 34.3514 26.2376C38.9939 22.7735 41.9999 17.2378 41.9999 10.9999C41.9999 10.4979 41.9805 10.0004 41.9422 9.50825C49.2104 14.3465 53.9998 22.614 53.9998 32Z" fill="black"/>
</svg>
