<svg width="64" height="64" viewBox="0 0 64 64" fill="none" xmlns="http://www.w3.org/2000/svg">
<g clip-path="url(#clip0_101_8)">
<path d="M41 26C42.6569 26 44 24.6569 44 23C44 21.3431 42.6569 20 41 20C39.3431 20 38 21.3431 38 23C38 24.6569 39.3431 26 41 26Z" fill="black"/>
<path fill-rule="evenodd" clip-rule="evenodd" d="M21.6008 1.16759C21.3692 0.910177 21.5518 0.5 21.8981 0.5H55C59.6944 0.5 63.5 4.30558 63.5 9C63.5 12.4782 61.4108 15.4685 58.4189 16.7845C56.921 27.3634 47.8371 35.4999 36.8485 35.4999H26.5V46.5H33.123L35.7948 44.3626C37.3019 43.1569 39.1746 42.5 41.1047 42.5H51L54.8992 46.8324C55.1308 47.0898 54.9482 47.5 54.6019 47.5H41.1047C40.3099 47.5 39.5388 47.7705 38.9183 48.267L34.877 51.5H26.5V54.5H34.877L38.9183 57.733C39.5388 58.2295 40.3099 58.5 41.1047 58.5H54.6019C54.9482 58.5 55.1308 58.9102 54.8992 59.1676L51 63.5H41.1047C39.1746 63.5 37.3019 62.8431 35.7948 61.6374L33.123 59.5H22.5V59.4529C10.2202 58.6794 0.5 48.4748 0.5 36C0.5 23.3563 10.4851 13.0448 23 12.5209V12.5H55C56.933 12.5 58.5 10.933 58.5 9C58.5 7.067 56.933 5.5 55 5.5H27.2815C26.1475 5.5 25.0668 5.01871 24.3083 4.17586L21.6008 1.16759ZM26.5 17.5H53.205C51.4857 24.9478 44.8128 30.4999 36.8485 30.4999H26.5V17.5ZM21.5 17.6675V30.4999H6.33134C8.4341 23.7377 14.312 18.6385 21.5 17.6675ZM5.5 36C5.5 35.8328 5.50222 35.6661 5.50663 35.4999H21.5V54.3325C12.4651 53.112 5.5 45.3694 5.5 36Z" fill="black"/>
<path d="M40 53C40 51.8954 40.8954 51 42 51H54.5C55.0523 51 55.5 51.4477 55.5 52V54C55.5 54.5523 55.0523 55 54.5 55H42C40.8954 55 40 54.1046 40 53Z" fill="black"/>
</g>
<defs>
<clipPath id="clip0_101_8">
<rect width="64" height="64" fill="white"/>
</clipPath>
</defs>
</svg>
