<svg width="64" height="64" viewBox="0 0 64 64" fill="none" xmlns="http://www.w3.org/2000/svg">
<path d="M56.9999 20C55.9999 23 54.5063 25.6034 50.9495 28.3046C46.551 31.6451 40.0697 33.5 31.5 33.5C29.3712 33.5 27.3712 33.3855 25.5001 33.1623V28.1574C27.2949 28.3815 29.2883 28.5 31.5 28.5C39.4302 28.5 44.699 26.7732 47.9255 24.3228C51.0714 21.9336 52.6451 17.5 52.5001 15.5C52.3551 13.5 50.5855 12.5 49 12.5C47.4145 12.5 46.0752 13.5543 45.6449 15H40.4864C40.4954 14.8345 40.5 14.6678 40.5 14.5C40.5 9.52944 36.4705 5.5 31.5 5.5C26.5294 5.5 22.5 9.52944 22.5 14.5C22.5 14.6678 22.5046 14.8345 22.5136 15H17.3551C16.9248 13.5543 15.5855 12.5 14 12.5C12.4145 12.5 11.3551 13.6719 11 14.5C10.6449 15.3281 10.6449 15.9375 10.6449 15.9375C10.6449 18.7656 12.0736 22.1367 15.2195 24.5259C16.6055 25.5786 18.3417 26.4602 20.5001 27.1235L20.5001 37.5H42.5001V35.7319C44.3297 35.253 45.9964 34.6431 47.5001 33.9102V42.5H15.5001V30.4105C14.2349 29.7939 13.0851 29.0904 12.0505 28.3046C9.50009 26.3677 8.00009 24 7.0001 22C6.0001 20 5.20694 17.5 5.50002 15C5.99495 10.7768 9.64389 7.5 14 7.5C15.7237 7.5 17.3275 8.01307 18.6672 8.89482C20.8287 3.95305 25.7611 0.5 31.5 0.5C37.2389 0.5 42.1713 3.95305 44.3328 8.89482C45.6725 8.01307 47.2763 7.5 49 7.5C52.2483 7.5 55.1034 9.32211 56.5506 12C57.0442 12.9132 57.374 13.926 57.4999 15C57.6621 16.3844 57.3534 18.9393 56.9999 20Z" fill="black"/>
<path d="M20.5001 45.5V48C20.5001 54.0751 25.425 59 31.5001 59C37.5752 59 42.5001 54.0751 42.5001 48V45.5H47.5001V48C47.5001 56.8366 40.3366 64 31.5001 64C22.6635 64 15.5001 56.8366 15.5001 48V45.5H20.5001Z" fill="black"/>
<path d="M24.5001 50C24.5001 48.6193 25.6194 47.5 27.0001 47.5H28.5001V52.5H27.0001C25.6194 52.5 24.5001 51.3807 24.5001 50Z" fill="black"/>
<path d="M36.0001 47.5C37.3808 47.5 38.5001 48.6193 38.5001 50C38.5001 51.3807 37.3808 52.5 36.0001 52.5H34.5001V47.5H36.0001Z" fill="black"/>
</svg>
