<svg width="64" height="64" viewBox="0 0 64 64" fill="none" xmlns="http://www.w3.org/2000/svg">
<path fill-rule="evenodd" clip-rule="evenodd" d="M32 43C39.1797 43 45 37.1797 45 30C45 22.8203 39.1797 17 32 17C24.8203 17 19 22.8203 19 30C19 37.1797 24.8203 43 32 43ZM32 38C36.4183 38 40 34.4183 40 30C40 25.5817 36.4183 22 32 22C27.5817 22 24 25.5817 24 30C24 34.4183 27.5817 38 32 38Z" fill="black"/>
<path fill-rule="evenodd" clip-rule="evenodd" d="M38.784 59.2297C36.9022 62.1024 33.6549 64 29.9643 64H29.5C25.1588 64 21.405 61.4852 19.6158 57.8329L19.3307 57.2015C18.3778 56.757 17.4522 56.2638 16.5569 55.7252C14.9351 57.4343 12.642 58.5 10.1 58.5C5.62649 58.5 2 54.8735 2 50.4V28H2.06543C3.0946 12.3639 16.1033 0 31.9998 0C48.5684 0 61.9998 13.4315 61.9998 30C61.9998 44.2354 52.0848 56.155 38.784 59.2297ZM7 28.0002V50.4C7 52.1121 8.38792 53.5 10.1 53.5C12.2539 53.5 14 51.7539 14 49.6V47.5L15.7512 49C16.721 49.8301 17.755 50.5873 18.8449 51.263C18.8449 51.263 19.1177 51.4302 19.2351 51.5C20.5872 52.3045 22.0216 52.9851 23.5227 53.5261C23.7892 56.5934 26.3636 59 29.5 59H29.9643C33.0216 59 35.5 56.5216 35.5 53.4643V53C35.5 49.4101 38.4101 46.5 42 46.5C44.3389 46.5 46.3892 47.7353 47.5342 49.5891C53.3015 45.0094 56.9998 37.9366 56.9998 30C56.9998 16.1929 45.8069 5 31.9998 5C18.841 5 8.05672 15.1664 7.07297 28.0732L7 28.0002ZM43.3238 52.2943C43.3238 52.2943 42.8284 51.5 42 51.5C41.1716 51.5 40.5 52.1716 40.5 53V53.4643C40.5 53.4822 40.5 53.5 40.4999 53.5179C41.4705 53.167 42.4132 52.7577 43.3238 52.2943Z" fill="black"/>
</svg>
