<svg width="64" height="64" viewBox="0 0 64 64" fill="none" xmlns="http://www.w3.org/2000/svg">
<g clip-path="url(#clip0_101_15)">
<path d="M25.6983 40.4059C29.8148 43.4998 35.6532 43.1789 39.3579 39.4742L50.726 28.1061V35.1771L42.8934 43.0097C38.4979 47.4052 32.1082 48.5748 26.6262 46.5486L18.0487 55.1261C28.43 61.393 42.12 60.0466 51.0797 51.0869C61.6238 40.5428 61.6238 23.4473 51.0797 12.9032C40.5355 2.35902 23.4401 2.35902 12.8959 12.9032C3.93639 21.8627 2.5899 35.5523 8.85644 45.9336L17.434 37.3561C15.4081 31.8742 16.5778 25.4847 20.9731 21.0894L28.8057 13.2568H35.8768L24.5087 24.6249C20.8039 28.3296 20.4831 34.168 23.5769 38.2846L20.0173 41.8442C20.0173 41.8441 20.0174 41.8443 20.0173 41.8442L8.32413 53.5374C-3.12629 40.9791 -2.78087 21.5089 9.36038 9.36764C21.8572 -3.12914 42.1184 -3.12914 54.6152 9.36764C67.112 21.8644 67.112 42.1257 54.6152 54.6225C42.474 66.7637 23.0037 67.1091 10.4455 55.6587L25.6983 40.4059Z" fill="black"/>
<path d="M40.8266 17.4992C41.8029 18.4755 41.8029 20.0584 40.8266 21.0347L28.8058 33.0555C27.8295 34.0319 26.2466 34.0319 25.2703 33.0555C24.2939 32.0792 24.2939 30.4963 25.2703 29.52L37.2911 17.4992C38.2674 16.5229 39.8503 16.5229 40.8266 17.4992Z" fill="black"/>
<path d="M46.4835 23.1561C47.4598 24.1324 47.4598 25.7153 46.4835 26.6916L34.4626 38.7124C33.4863 39.6887 31.9034 39.6887 30.9271 38.7124C29.9508 37.7361 29.9508 36.1532 30.9271 35.1769L42.9479 23.1561C43.9242 22.1797 45.5071 22.1797 46.4835 23.1561Z" fill="black"/>
</g>
<defs>
<clipPath id="clip0_101_15">
<rect width="64" height="64" fill="white"/>
</clipPath>
</defs>
</svg>
