<svg width="64" height="64" viewBox="0 0 64 64" fill="none" xmlns="http://www.w3.org/2000/svg">
<path d="M39.7094 15C39.0584 15 38.425 15.2118 37.9049 15.6034L30.7375 21H1C0.447715 21 0 20.5523 0 20V16C0 15.4477 0.447715 15 0.999999 15H28.7312L34.2959 10.8102C35.8562 9.63536 37.7563 9 39.7094 9H63C63.5523 9 64 9.44772 64 10V14C64 14.5523 63.5523 15 63 15H39.7094Z" fill="black"/>
<path d="M34 24.5C34 22.8431 35.3431 21.5 37 21.5H63C63.5523 21.5 64 21.9477 64 22.5V26.5C64 27.0523 63.5523 27.5 63 27.5H37C35.3431 27.5 34 26.1569 34 24.5Z" fill="black"/>
<path d="M64 52.5C64 53.0523 63.5523 53.5 63 53.5H1C0.447715 53.5 0 53.0523 0 52.5V50C0 37.8497 9.84972 28 22 28H30.5937L37.7767 34.2614C38.323 34.7376 39.0233 35 39.748 35H63C63.5523 35 64 35.4477 64 36V40C64 40.5523 63.5523 41 63 41H39.748C37.5738 41 35.4731 40.2129 33.8342 38.7843L28.3457 34H22C14.0139 34 7.39437 39.8509 6.19417 47.5H63C63.5523 47.5 64 47.9477 64 48.5V52.5Z" fill="black"/>
</svg>
