<svg width="64" height="64" viewBox="0 0 64 64" fill="none" xmlns="http://www.w3.org/2000/svg">
<g clip-path="url(#clip0_101_19)">
<path fill-rule="evenodd" clip-rule="evenodd" d="M40 7.4445L58.1643 4.41712C58.6465 4.33676 58.9999 3.91957 58.9999 3.43073V1.40314C58.9999 0.785201 58.445 0.315158 57.8355 0.416747L22 6.38933V15.3075C12.1163 18.6436 5 27.9908 5 39.0001C5 52.8072 16.1929 64.0001 30 64.0001C43.8071 64.0001 55 52.8072 55 39.0001C55 28.7485 48.8295 19.9381 40 16.0803V13.5H58C58.5523 13.5 59 13.0523 59 12.5V10.5C59 9.94774 58.5523 9.50002 58 9.50002H40V7.4445ZM29 9.27783L26 9.77783V33.2222C27.034 33.5702 28.0359 33.9882 29 34.4705V9.27783ZM33 8.61117V37.0055C34.0801 37.8536 35.0841 38.7942 36 39.8154V8.11117L33 8.61117ZM40 38.7463V20.5293C46.0353 23.8038 50.2859 29.95 50.9183 37.1347C50.124 37.0457 49.3171 37 48.5001 37C45.4823 37 42.6078 37.6227 40 38.7463ZM48.5001 41C49.3116 41 50.1094 41.0551 50.8901 41.1616C50.7518 42.5147 50.485 43.8297 50.1021 45.0943C49.5762 45.032 49.0415 45 48.5 45C45.5578 45 42.8346 45.9425 40.6174 47.5395C40.1553 46.2557 39.5846 45.0239 38.9164 43.8549C41.669 42.0494 44.9599 41 48.5001 41ZM41.7178 51.8477C43.4376 50.0943 45.8264 49.008 48.4708 49.0001C46.902 51.8917 44.674 54.3736 41.9884 56.2441C41.9961 55.997 41.9999 55.7489 41.9999 55.5C41.9999 54.2577 41.9035 53.0379 41.7178 51.8477ZM37.9999 55.5C37.9999 56.5271 37.9207 57.5344 37.7683 58.5165C36.3843 59.0678 34.9279 59.4763 33.4172 59.7235C33.797 58.3798 34.0001 56.9628 34.0001 55.5C34.0001 46.9396 27.0605 40 18.5001 40C15.0891 40 11.934 41.1033 9.3747 42.9699C9.12875 41.6844 9 40.3573 9 39.0001C9 38.8203 9.00226 38.6411 9.00675 38.4624C11.8148 36.894 15.0505 36 18.4999 36C29.2695 36 37.9999 44.7305 37.9999 55.5ZM30.0001 55.5C30.0001 57.0922 29.6776 58.6054 29.095 59.9809C27.6609 59.9201 26.2641 59.7155 24.9185 59.3811C25.6043 58.2495 25.9999 56.9212 25.9999 55.5C25.9999 51.3579 22.6421 48 18.4999 48C16.1268 48 14.0133 49.1015 12.6397 50.8197C11.8509 49.6634 11.1746 48.4242 10.6266 47.1179C12.6859 45.1825 15.4536 44 18.5001 44C24.8514 44 30.0001 49.1488 30.0001 55.5ZM21.9999 55.5C21.9999 56.4625 21.6123 57.3354 20.9802 57.9698C18.8794 56.9691 16.971 55.6297 15.3257 54.0222C15.8832 52.8267 17.097 52 18.4999 52C20.4329 52 21.9999 53.567 21.9999 55.5ZM18.4999 32C15.379 32 12.3977 32.6093 9.67048 33.7157C11.3345 27.296 15.959 22.0686 22 19.5777V32.2589C20.8581 32.0884 19.6893 32 18.4999 32Z" fill="black"/>
</g>
<defs>
<clipPath id="clip0_101_19">
<rect width="64" height="64" fill="white"/>
</clipPath>
</defs>
</svg>
