<svg width="64" height="64" viewBox="0 0 64 64" fill="none" xmlns="http://www.w3.org/2000/svg">
<path d="M18.1426 33.1362C18.0649 31.4277 19.4292 30 21.1395 30H21.6333C23.2372 30 24.5574 31.2616 24.6302 32.8638L24.8575 37.8638C24.9351 39.5723 23.5709 41 21.8606 41H21.3667C19.7629 41 18.4427 39.7385 18.3698 38.1362L18.1426 33.1362Z" fill="black"/>
<path d="M43.3606 30C45.0709 30 46.4351 31.4277 46.3575 33.1362L46.1302 38.1362C46.0574 39.7385 44.7372 41 43.1333 41H42.6395C40.9292 41 39.5649 39.5723 39.6426 37.8638L39.8698 32.8638C39.9427 31.2616 41.2629 30 42.8667 30H43.3606Z" fill="black"/>
<path fill-rule="evenodd" clip-rule="evenodd" d="M24.5313 10.1905C23.2001 10.1905 22.0281 11.0678 21.6529 12.3451L20.7076 15.5636C20.4575 16.4151 19.6762 17 18.7887 17H18C11.2689 17.0265 5.73728 21.7788 4.37651 28H4.25782C1.95053 28 0.121685 29.9467 0.265609 32.2495L0.765609 40.2495C0.897368 42.3577 2.64557 44 4.75782 44H5.21013C6.19424 50.8499 12.0737 56 19.0668 56H44.9334C51.9265 56 57.806 50.8499 58.7901 44H59.2422C61.3545 44 63.1027 42.3577 63.2344 40.2495L63.7344 32.2495C63.8783 29.9467 62.0495 28 59.7422 28H59.6237C58.2629 21.7788 52.7312 17.0265 46 17.0001L45.9436 17H45.2114C44.3239 17 43.5425 16.4151 43.2924 15.5636L42.3471 12.3451C41.972 11.0678 40.7999 10.1905 39.4687 10.1905H24.5313ZM10.0901 31.7316C9.65964 27.0442 13.3494 23 18.0566 23H45.9436C50.6508 23 54.3406 27.0442 53.9101 31.7316L52.8999 42.7316C52.5218 46.8491 49.0682 50 44.9334 50H19.0668C14.932 50 11.4785 46.8491 11.1003 42.7316L10.0901 31.7316Z" fill="black"/>
</svg>
