<svg width="64" height="64" viewBox="0 0 64 64" fill="none" xmlns="http://www.w3.org/2000/svg">
<path d="M50 34C50.5523 34 51 33.5523 51 33V27H57C57.5523 27 58 26.5523 58 26V19C58 18.4477 57.5523 18 57 18H51V12C51 11.4477 50.5523 11 50 11H43C42.4477 11 42 11.4477 42 12V18H36C35.4477 18 35 18.4477 35 19V26C35 26.5523 35.4477 27 36 27H42V33C42 33.5523 42.4477 34 43 34H50Z" fill="black"/>
<path d="M26 19C26 18.4477 25.5523 18 25 18H7C6.44772 18 6 18.4477 6 19V26C6 26.5523 6.44772 27 7 27H25C25.5523 27 26 26.5523 26 26V19Z" fill="black"/>
<path d="M55.0911 46.0163C55.3951 45.55 55.2314 44.9302 54.7493 44.6519L48.6542 41.1329C48.1832 40.8609 47.584 41.0172 47.2727 41.4632C43.9761 46.187 37.7494 49.4997 29.9996 49.4997C22.6991 49.4997 16.832 46.8213 13.422 42.6019C13.0982 42.2013 12.5323 42.0756 12.0862 42.3332L5.94447 45.8791C5.44623 46.1668 5.29144 46.816 5.62938 47.2816C10.9101 54.5573 20.1865 58.4997 29.9996 58.4997C40.3553 58.4997 49.99 53.8409 55.0911 46.0163Z" fill="black"/>
</svg>
