<svg width="64" height="64" viewBox="0 0 64 64" fill="none" xmlns="http://www.w3.org/2000/svg">
<path d="M33.0649 13.0467C34.3083 10.7064 35.5774 6.61629 33.5001 3.50022C30.5001 -0.999779 26.5001 0.000220418 25.5001 2.00022C24.5001 4.00022 26.0001 6.5 27.5001 8C28.502 9.0019 30.503 11.4678 31.8154 13.1277C32.1541 13.556 32.8087 13.5289 33.0649 13.0467Z" fill="black"/>
<path d="M22.5779 22.6767C22.4733 22.0817 21.8273 21.6779 21.3036 21.9789C14.5488 25.8616 10 33.1494 10 41.4997C10 53.9261 20.0736 63.9997 32.5 63.9997C44.9264 63.9997 55.5 53.9264 55.5 41.5C55.5 40.0994 55.3128 38.5949 55.0268 37.1722C54.8705 36.3948 53.8546 36.2905 53.5 36.9997C52.5 38.9997 50.5 39.1664 49.5 38.4997C48 37.4997 48 35.9997 49 32.4997C49.4383 30.9658 49.6965 28.9616 49.8404 27.1613C49.8404 25.0738 49.5228 14.7405 38.6882 7.7301C38.1699 7.39469 37.4926 7.77456 37.4558 8.39089C37.3 10.9991 36.7026 14.8491 35.1928 19.1592C33.8163 21.9558 30.6921 26.4997 27 26.4997C24.0244 26.4997 22.8934 24.4707 22.5779 22.6767Z" fill="black"/>
</svg>
