<svg width="64" height="64" viewBox="0 0 64 64" fill="none" xmlns="http://www.w3.org/2000/svg">
<g clip-path="url(#clip0_101_67)">
<path d="M24 20.8886C24 19.9892 23.6969 19.116 23.1395 18.4101L9.74134 1.43902C9.50338 1.1376 9.01867 1.31213 9.0275 1.69607L9.48449 21.5751C9.49575 22.0649 9.68636 22.5335 10.0202 22.892L18.5 32L9.62592 27.7273L9.85076 37.5082C9.86708 38.2179 10.2584 38.8658 10.8789 39.2105L19.5 44H10L15.7178 53.9063C16.2635 54.8519 17.4668 55.1851 18.4212 54.6549L25 51L27.5 53L24.7178 57.637C24.1338 58.6103 24.4759 59.8739 25.4711 60.4196L32 64L38.5289 60.4196C39.5241 59.8739 39.8662 58.6103 39.2822 57.637L36.5 53L39 51L45.5788 54.6549C46.5332 55.1851 47.7365 54.8519 48.2822 53.9063L54 44H44.5L53.1211 39.2105C53.7416 38.8658 54.1329 38.2179 54.1492 37.5082L54.3741 27.7273L45.5 32L53.9798 22.892C54.3136 22.5335 54.5043 22.0649 54.5155 21.5751L54.9725 1.69607C54.9813 1.31213 54.4966 1.1376 54.2587 1.43902L40.8605 18.4101C40.3031 19.116 40 19.9892 40 20.8886V35.4051C40 36.1122 39.7502 36.7966 39.2947 37.3375L32 46L24.7053 37.3375C24.2498 36.7966 24 36.1122 24 35.4051V20.8886Z" fill="black"/>
<path d="M27.6477 34.8607C27.2012 34.3262 27.0649 33.5978 27.288 32.938L32 19L36.712 32.938C36.935 33.5978 36.7988 34.3262 36.3523 34.8607L32 40.0713L27.6477 34.8607Z" fill="black"/>
</g>
<defs>
<clipPath id="clip0_101_67">
<rect width="64" height="64" fill="white"/>
</clipPath>
</defs>
</svg>
