<svg width="64" height="64" viewBox="0 0 64 64" fill="none" xmlns="http://www.w3.org/2000/svg">
<path fill-rule="evenodd" clip-rule="evenodd" d="M10.8863 30H9.62704C4.22046 30 0.125105 24.8871 0.583351 19.5C1.11113 13.2955 3.75002 9 3.75002 9L5.66558 15.6403C6.40652 18.2088 8.75729 19.9773 11.4305 19.9773H17.1521C20.25 17.4825 24.1836 16 28.4379 16H37.1855C41.4445 16 45.3762 17.4842 48.4714 19.9773H52.5695C55.2427 19.9773 57.5935 18.2088 58.3345 15.6403L60.25 9C60.25 9 62.8889 13.2955 63.4167 19.5C63.8646 24.7659 59.9615 29.7698 54.7358 29.9923C54.9411 30.8951 55.079 31.8246 55.1438 32.7756L56.8544 57.864C56.9332 59.0194 56.0171 60 54.859 60H10.1901C9.01402 60 8.09182 58.9902 8.1983 57.8189L10.5118 32.3704C10.5852 31.5627 10.7113 30.7715 10.8863 30ZM23 32.25C23 30.4551 24.4551 29 26.25 29C28.0449 29 29.5 30.4551 29.5 32.25V36.75C29.5 38.5449 28.0449 40 26.25 40C24.4551 40 23 38.5449 23 36.75V32.25ZM36.5 32.25C36.5 30.4551 37.9551 29 39.75 29C41.5449 29 43 30.4551 43 32.25V36.75C43 38.5449 41.5449 40 39.75 40C37.9551 40 36.5 38.5449 36.5 36.75V32.25Z" fill="black"/>
</svg>
