<svg width="64" height="64" viewBox="0 0 64 64" fill="none" xmlns="http://www.w3.org/2000/svg">
<path fill-rule="evenodd" clip-rule="evenodd" d="M27.3557 16C23.5466 16 20.4366 19.0459 20.3573 22.8542L20.0851 35.9167C20.0384 38.1579 21.8425 40 24.0842 40H26V43C26 44.8778 27.294 46.4534 29.0389 46.8838C29.2807 46.9434 29.5 46.7491 29.5 46.5C29.5 45.9477 29.9478 45.5 30.5 45.5H31C31.5523 45.5 32 45.9477 32 46.5C32 46.7749 32.2251 46.9965 32.5 46.9923L33.0155 46.9843C33.5617 46.9758 34 46.5307 34 45.9844V45.9691C34 45.4168 34.4478 45 35 45H35.5C36.0523 45 36.5 45.4477 36.5 46C36.5 46.339 36.8436 46.5669 37.1304 46.3861C38.2538 45.6779 39 44.4261 39 43V40.4615L41.1495 40.2962C43.2976 40.131 44.929 38.294 44.8393 36.1414L44.2796 22.7086C44.1233 18.9592 41.0383 16 37.2856 16H27.3557ZM26.6459 33.1967C28.5282 33.6963 29.843 32.9331 30.3426 31.0507C30.8422 29.1684 30.3373 26.8799 28.455 26.3803C26.5727 25.8807 24.9995 27.6178 24.4999 29.5001C24.0004 31.3824 24.7636 32.6972 26.6459 33.1967ZM37.5286 33.1713C38.9566 32.8872 39.5881 31.9422 39.304 30.5142C39.0199 29.0862 37.9279 27.716 36.4999 28.0001C35.072 28.2842 34.4996 29.6312 34.7837 31.0592C35.0678 32.4872 36.1007 33.4554 37.5286 33.1713Z" fill="black"/>
<path d="M16.2609 37.2392V22.0764C14.0187 21.68 11.8383 22.2748 9.76187 22.8411C8.81844 23.0984 7.89649 23.3499 7 23.4999C5.1773 23.8048 2.74064 23.7264 1.09586 23.6011C0.622023 23.565 0.226502 24.0831 0.379149 24.5331C0.717279 25.53 1.2149 26.9492 2 27.9999C3.43478 29.9202 5.41304 31.5598 7.80435 33C8.43437 33.3794 8.95423 33.6658 9.37826 33.8994C10.5637 34.5524 11 34.7928 11 35.5C11 36.4601 9 37.1204 7.80435 37.4385C6.64899 37.7459 5.6006 37.8565 4.74477 37.8962C4.24272 37.9196 3.95979 38.5017 4.29044 38.8802C5.0549 39.7553 6.20183 40.8835 7.80435 41.7591C8.83458 42.322 10.4138 42.6911 11.8421 42.9146C13.4791 43.1707 14.8261 44.5424 14.8261 46.1993V48.9003C15.6232 48.5803 17.6665 47.7356 19.1304 46.5C21.0478 44.8817 21.5323 43.5117 21.8163 42.7086C21.8376 42.6483 21.8578 42.5913 21.8774 42.5375C21.9282 42.3979 21.8255 42.2392 21.6769 42.2392H21.2609C18.4994 42.2392 16.2609 40.0006 16.2609 37.2392Z" fill="black"/>
<path d="M48.7391 37.2391V22.0763C51.6868 22.0235 53.6149 22.4953 55.4734 22.9501C56.3014 23.1526 57.1156 23.3519 58 23.4998C59.5575 23.7604 61.4579 24.0154 62.9001 24.0399C63.3753 24.048 63.7735 24.583 63.6208 25.033C63.2827 26.0299 62.7851 27.4491 62 28.4998C60.5652 30.4201 59.587 31.3409 57.1957 32.7811C56.8593 32.9836 56.5544 33.164 56.2786 33.3271C54.5943 34.3234 54 34.6749 54 35.4999C54 36.4601 56 37.1203 57.1957 37.4385C58.351 37.7459 59.3994 37.8564 60.2552 37.8962C60.7573 37.9195 61.0402 38.5017 60.7096 38.8802C59.9451 39.7552 58.7982 40.8834 57.1957 41.7591C56.1654 42.322 54.5862 42.6911 53.1579 42.9146C51.5209 43.1707 50.1739 44.5424 50.1739 46.1993V48.9003C49.3768 48.5802 47.3335 47.7355 45.8696 46.4999C43.9522 44.8816 43.4677 43.5116 43.1837 42.7085C43.1623 42.6483 43.1422 42.5912 43.1226 42.5375C43.0718 42.3979 43.1745 42.2391 43.3231 42.2391H43.7391C46.5006 42.2391 48.7391 40.0005 48.7391 37.2391Z" fill="black"/>
</svg>
