<svg width="64" height="64" viewBox="0 0 64 64" fill="none" xmlns="http://www.w3.org/2000/svg">
<path fill-rule="evenodd" clip-rule="evenodd" d="M24.5414 9.49827C24.2499 6.00016 27.0104 4 30.5207 4H34.4791C37.9893 4 40.7499 6.00016 40.4584 9.49827C40.2879 11.5437 39.1049 13.2786 37.4271 14.2266C36.6351 14.674 35.9999 15.4397 35.9999 16.3494C35.9999 17.4892 36.9801 18.3821 38.1149 18.2761L44.898 17.6423C48.0478 17.3108 50.7084 19.9541 50.3972 23.106L49.6174 30.6067C49.5121 31.6191 50.3062 32.5 51.324 32.5C51.7788 32.5 52.6607 32.4632 53 32C54.5 29.9519 56 29 58.5 29C61 29 64 32.4898 64 36V38C64 41.5102 61.375 44.5 58 44.5C56.5 44.5 54.5 43.5 53 41.5C52.5 41 51.8775 40.5 51.4227 40.5C50.3486 40.5 49.5074 41.424 49.6078 42.4934L50.3972 50.894C50.7084 54.0459 48.0478 56.6892 44.898 56.3577L36.6374 55.4881C35.9908 55.4201 35.5 54.8749 35.5 54.2247C35.5 52.8414 36.2148 51.5562 37.39 50.8265L41.9849 47.9736C43.1888 47.2841 44 45.9868 44 44.5C44 42.2909 42 41 40.0994 41.1276C39.377 41.1276 38.7953 41.2659 38.2104 41.6008C37.9299 41.7615 37.5074 42.0838 37.0823 42.4081C36.0984 43.0504 34.6342 43.8184 33 44C30.6493 44.2612 28 44 28 44C28 44 25.8426 43.6276 25.0994 43.6276C23.4425 43.6276 22 44.3431 22 46C22 47.3162 22.8477 48.4345 24.0269 48.8387L27.5007 50.8452C28.7379 51.5598 29.5 52.8801 29.5 54.3089C29.5 54.8513 29.0904 55.3063 28.551 55.3631L19.102 56.3577C15.9522 56.6892 13.2916 54.0459 13.6028 50.894L14.3849 42.5704C14.4893 41.4597 13.6156 40.5 12.5 40.5C11.8336 40.5 11.2381 41.1613 10.6477 41.8168C10.4322 42.0561 10.2173 42.2947 10 42.5C9.27972 43.1804 8 43.8749 6.49827 44C3.00016 44.2915 0.5 41.0102 0.5 37.5V35.5C0.5 31.9898 3.00016 28.7085 6.49827 29C8.5437 29.1705 9 29.5 10 30.5C10.1378 30.6378 10.2904 30.8083 10.454 30.9912C11.0546 31.6622 11.8044 32.5 12.5192 32.5C13.5813 32.5 14.4127 31.5855 14.3117 30.5282L13.6028 23.106C13.2916 19.9541 15.9522 17.3108 19.102 17.6423L26.7803 18.3689C27.9708 18.4816 28.9999 17.5452 28.9999 16.3494C28.9999 15.4397 28.3647 14.674 27.5727 14.2266C25.8949 13.2786 24.7119 11.5437 24.5414 9.49827ZM25.5 26C24.1193 26 23 27.1193 23 28.5V33.5C23 34.8807 24.1193 36 25.5 36C26.8807 36 28 34.8807 28 33.5V28.5C28 27.1193 26.8807 26 25.5 26ZM37.5 26C36.1193 26 35 27.1193 35 28.5V33.5C35 34.8807 36.1193 36 37.5 36C38.8807 36 40 34.8807 40 33.5V28.5C40 27.1193 38.8807 26 37.5 26Z" fill="black"/>
</svg>
