<svg width="64" height="64" viewBox="0 0 64 64" fill="none" xmlns="http://www.w3.org/2000/svg">
<path d="M17.658 20.6753C19.7084 18.8863 22.0356 16.8559 24.5001 16.0391C25.0001 17.5 26.5001 19 28.5001 19C31.2813 19 32.9965 17.1525 33.0001 13C33.0022 10.5021 32.0351 7.24293 31.2914 4.73628C30.7313 2.84878 30.2978 1.38794 30.5001 1C31.2059 1.40335 31.9118 1.796 32.6171 2.18836C38.9067 5.68707 45.1555 9.1631 51.0001 20C54.9561 27.3352 56.0001 34.3894 56.0001 40C56.0001 48.8834 51.1737 56.6395 44.0001 60.7893C40.5182 62.8034 36.0001 64.5 31.5001 63C27.0001 61.5 25.2909 56.3263 27.5001 52.5L29.1077 49.5527C29.3767 49.0595 29.9991 48.8846 30.4856 49.1655L31.7019 49.8678L33.294 52.1429C33.5542 52.5148 34.0324 52.6648 34.4585 52.5081L37.0336 51.5609C37.2376 51.4858 37.3444 51.2616 37.2739 51.0559L36.3549 48.3724C37.6858 47.2976 39.0044 45.648 40.3516 43.3147C46.9927 31.8119 43.8718 23.9998 42.8427 22C40.5963 22.1086 32.2703 23.3119 25.6292 34.8147C24.282 37.148 23.5127 39.1148 23.2474 40.8047L20.4639 41.3506C20.2506 41.3925 20.1097 41.597 20.1467 41.8113L20.614 44.515C20.6913 44.9623 21.0603 45.3014 21.5125 45.3409L24.2789 45.5821L25.4595 46.2637C25.9524 46.5483 26.1087 47.1864 25.8031 47.6666L24.0001 50.5C22.5001 52.4388 20.0724 54 18.0001 54.3541C15.6575 54.7545 13.5001 54.9388 11.0001 53C8.50004 51.0612 7.00017 47.5001 7.50007 40C7.99997 32.5 11.3008 26.0783 16.5001 21.6759C16.875 21.3584 17.2613 21.0214 17.658 20.6753Z" fill="black"/>
<path d="M34.5 36.5C36.2936 37.5355 38.5871 36.921 39.6226 35.1274C40.6581 33.3338 40.0436 31.0403 38.25 30.0048C36.4564 28.9693 34.1629 29.5838 33.1274 31.3774C32.0919 33.171 32.7064 35.4645 34.5 36.5Z" fill="black"/>
</svg>
