<svg width="64" height="64" viewBox="0 0 64 64" fill="none" xmlns="http://www.w3.org/2000/svg">
<g clip-path="url(#clip0_101_156)">
<path d="M12 0L8 1.90735e-06C3.58172 1.90735e-06 0 3.58172 0 8V12C11.0457 12 20 20.9543 20 32C20 43.0457 11.0457 52 0 52V56C0 60.4183 3.58172 64 8 64H12C12 52.9543 20.9543 44 32 44C43.0457 44 52 52.9543 52 64H56C60.4183 64 64 60.4183 64 56V52C52.9543 52 44 43.0457 44 32C44 20.9543 52.9543 12 64 12V8C64 3.58172 60.4183 1.90735e-06 56 1.90735e-06H52C52 11.0457 43.0457 20 32 20C20.9543 20 12 11.0457 12 0Z" fill="black"/>
<path d="M20 0L44 1.90735e-06C44 6.62742 38.6274 12 32 12C25.3726 12 20 6.62742 20 0Z" fill="black"/>
<path d="M64 20C57.3726 20 52 25.3726 52 32C52 38.6274 57.3726 44 64 44V20Z" fill="black"/>
<path d="M44 64C44 57.3726 38.6274 52 32 52C25.3726 52 20 57.3726 20 64H44Z" fill="black"/>
<path d="M0 44C6.62742 44 12 38.6274 12 32C12 25.3726 6.62742 20 0 20V44Z" fill="black"/>
</g>
<defs>
<clipPath id="clip0_101_156">
<rect width="64" height="64" fill="white"/>
</clipPath>
</defs>
</svg>
