<svg width="64" height="64" viewBox="0 0 64 64" fill="none" xmlns="http://www.w3.org/2000/svg">
<path d="M47.9999 11.547C47.9999 10.118 47.2375 8.79745 45.9999 8.08291L33.4999 0.866035C32.5717 0.330137 31.4281 0.330137 30.4999 0.866035L27.9999 2.30941V53L23.9999 50.5V19.1087L17.8799 22.9337C16.7104 23.6647 15.9999 24.9465 15.9999 26.3257V52.453C15.9999 53.8821 16.7623 55.2026 17.9999 55.9171L30.4999 63.134C31.4281 63.6699 32.5717 63.6699 33.4999 63.134L35.9999 61.6906V11L39.9999 13.5V44.8913L46.1199 41.0663C47.2894 40.3354 47.9999 39.0535 47.9999 37.6743V11.547Z" fill="black"/>
<path d="M51.9999 11.547V42.1083L41.8799 48.4333C40.7104 49.1643 39.9999 50.4461 39.9999 51.8253V59.3812L58.2127 48.866C59.1409 48.3301 59.7127 47.3398 59.7127 46.268V17.7321C59.7127 16.6603 59.1409 15.6699 58.2127 15.134L51.9999 11.547Z" fill="black"/>
<path d="M11.9999 52.453V21.8917L22.1199 15.5667C23.2894 14.8358 23.9999 13.5539 23.9999 12.1747V4.61881L5.78711 15.134C4.85891 15.6699 4.28711 16.6603 4.28711 17.7321V46.268C4.28711 47.3398 4.85891 48.3301 5.78711 48.866L11.9999 52.453Z" fill="black"/>
</svg>
