<svg width="64" height="64" viewBox="0 0 64 64" fill="none" xmlns="http://www.w3.org/2000/svg">
<path d="M32 2H42V12H32V2Z" fill="black"/>
<path fill-rule="evenodd" clip-rule="evenodd" d="M32 22V12H16C7.71573 12 1 18.7157 1 27C1 35.2843 7.71573 42 16 42H32L32 52L22 52V62H32L32 52L48 52C56.2843 52 63 45.2843 63 37C63 28.7157 56.2843 22 48 22H32ZM32 32H16C13.2386 32 11 29.7614 11 27C11 24.2386 13.2386 22 16 22H32V32ZM32 32V42H48C50.7614 42 53 39.7614 53 37C53 34.2386 50.7614 32 48 32L32 32Z" fill="black"/>
</svg>
