<svg width="64" height="64" viewBox="0 0 64 64" fill="none" xmlns="http://www.w3.org/2000/svg">
<g clip-path="url(#clip0_101_162)">
<path fill-rule="evenodd" clip-rule="evenodd" d="M4.19238 22.8076C-0.884438 27.8844 -0.884438 36.1156 4.19238 41.1924L22.8076 59.8076C27.8844 64.8844 36.1156 64.8844 41.1924 59.8076L59.8076 41.1924C64.8844 36.1156 64.8844 27.8844 59.8076 22.8076L41.1924 4.19238C36.1156 -0.884438 27.8844 -0.884438 22.8076 4.19238L4.19238 22.8076ZM30.1023 14.5461C28.7354 15.913 28.7354 18.129 30.1023 19.4959L26.5667 23.0314C23.2473 19.7119 23.2473 14.33 26.5667 11.0106C29.8862 7.69113 35.2681 7.69113 38.5876 11.0106C41.907 14.33 41.907 19.7119 38.5876 23.0314L30.8094 30.8096L27.2739 27.274L35.052 19.4959C36.4189 18.129 36.4189 15.913 35.052 14.5461C33.6852 13.1793 31.4691 13.1793 30.1023 14.5461ZM35.052 50.6085C36.4189 49.2417 36.4189 47.0256 35.052 45.6588L38.5876 42.1233C41.907 45.4427 41.907 50.8246 38.5876 54.1441C35.2681 57.4635 29.8862 57.4635 26.5667 54.1441C23.2473 50.8246 23.2473 45.4427 26.5667 42.1233L34.3449 34.3451L37.8805 37.8806L30.1023 45.6588C28.7354 47.0256 28.7354 49.2417 30.1023 50.6085C31.4691 51.9754 33.6852 51.9754 35.052 50.6085ZM37.8805 27.2742L34.3449 30.8098L42.1231 38.5879C45.4426 41.9074 50.8245 41.9074 54.1439 38.5879C57.4634 35.2685 57.4634 29.8866 54.1439 26.5671C50.8245 23.2477 45.4426 23.2477 42.1231 26.5671L45.6586 30.1026C47.0255 28.7358 49.2415 28.7358 50.6084 30.1026C51.9752 31.4695 51.9752 33.6856 50.6084 35.0524C49.2415 36.4192 47.0255 36.4192 45.6586 35.0524L37.8805 27.2742ZM27.2739 37.8804L30.8094 34.3449L23.0312 26.5667C19.7118 23.2473 14.3299 23.2473 11.0104 26.5667C7.69094 29.8862 7.69094 35.2681 11.0104 38.5876C14.3299 41.907 19.7118 41.907 23.0312 38.5876L19.4957 35.052C18.1288 36.4189 15.9128 36.4189 14.5459 35.052C13.1791 33.6852 13.1791 31.4691 14.5459 30.1023C15.9128 28.7354 18.1288 28.7354 19.4957 30.1023L27.2739 37.8804Z" fill="black"/>
</g>
<defs>
<clipPath id="clip0_101_162">
<rect width="64" height="64" fill="white"/>
</clipPath>
</defs>
</svg>
