<svg width="64" height="64" viewBox="0 0 64 64" fill="none" xmlns="http://www.w3.org/2000/svg">
<path d="M10.1123 28.5C11.086 28.5 11.9079 27.795 12.1517 26.8523C14.4353 18.022 22.456 11.5 32 11.5C39.4842 11.5 46.0317 15.5107 49.6105 21.5H28.3213C26.8859 21.5 25.5605 22.2691 24.8483 23.5154L22 28.5H57.1787C58.6141 28.5 59.9395 27.7309 60.6517 26.4846L63.5 21.5H57.4243C53.2987 11.5213 43.4693 4.5 32 4.5C17.9979 4.5 6.43992 14.9648 4.72064 28.5H10.1123Z" fill="black"/>
<path d="M2.84832 36.5154C3.56049 35.2691 4.88586 34.5 6.32129 34.5H42.5L39.6517 39.4846C38.9395 40.7309 37.6141 41.5 36.1787 41.5H13.8294C17.255 48.0387 24.1065 52.5 32 52.5C41.8655 52.5 50.1033 45.5312 52.0594 36.2477C52.2679 35.2582 53.1095 34.5 54.1207 34.5H59.3879C58.1248 48.5163 46.3451 59.5 32 59.5C20.1513 59.5 10.0527 52.0065 6.18507 41.5H0L2.84832 36.5154Z" fill="black"/>
</svg>
