<svg width="64" height="64" viewBox="0 0 64 64" fill="none" xmlns="http://www.w3.org/2000/svg">
<path d="M47.1134 38.1788C41.3201 41.5235 35.5341 42.388 30.5412 42.1412C29.7517 42.1022 29.0719 41.5717 28.8601 40.8101C28.332 38.911 28.0336 36.8137 28.3355 34.8991C32.8159 35.5593 38.2237 35.2284 43.6134 32.1166C49.7843 28.5538 52.8101 23.1479 54.3074 18.4707C55.0534 16.1405 55.4037 14.0336 55.5662 12.5139C54.1689 11.8948 52.1691 11.1447 49.7781 10.6257C48.9091 10.437 47.9943 10.2798 47.0422 10.17C46.5343 10.1114 46.0623 9.87648 45.7131 9.50306C43.9638 7.63269 41.4892 5.39039 38.6461 3.48566C43.327 2.6346 47.6906 3.00942 51.2632 3.78502C54.2263 4.42831 56.6905 5.35445 58.4218 6.12285C59.2901 6.50823 59.9817 6.85732 60.468 7.11725C60.6339 7.20593 61.5272 7.74263 62.1224 8.10025L62.1265 8.10269C62.4021 8.26827 62.613 8.39498 62.6568 8.42019C62.6567 8.4709 62.661 8.71873 62.6667 9.04212C62.6788 9.73641 62.6969 10.7791 62.6908 10.9672C62.6727 11.5183 62.6292 12.2918 62.5288 13.2364C62.3286 15.12 61.8986 17.7171 60.9742 20.6049C59.1249 26.3813 55.2319 33.4915 47.1134 38.1788Z" fill="black"/>
<path d="M45.9841 22.9852C46.5377 22.421 46.6572 21.567 46.2963 20.8638C44.0136 16.4164 40.3719 11.8378 34.5786 8.49306C26.4601 3.80585 18.3559 3.98947 12.4288 5.27623C9.46566 5.91952 7.00149 6.84566 5.27019 7.61406C4.40189 7.99944 3.71031 8.34853 3.22399 8.60846C3.05803 8.69717 2.16492 9.23376 1.5697 9.59138C1.29206 9.75819 1.07923 9.88606 1.03523 9.91138C1.03529 9.96182 1.03103 10.207 1.02545 10.5276L1.02534 10.5335C1.01325 11.2278 0.995082 12.2703 1.00124 12.4584C1.01929 13.0095 1.06276 13.783 1.16316 14.7276C1.36336 16.6112 1.79338 19.2083 2.71785 22.0961C3.83246 25.5779 5.68964 29.5442 8.76712 33.1725C8.99514 29.7579 9.69974 26.4937 10.4449 24.0436C10.5936 23.5545 10.5611 23.0282 10.3579 22.5591C9.97694 21.6796 9.65569 20.8088 9.38457 19.9619C8.63861 17.6317 8.28828 15.5248 8.12582 14.0051C9.52311 13.386 11.5229 12.6359 13.9139 12.1169C18.7131 11.075 24.9077 10.9925 31.0786 14.5552C36.4683 17.667 39.4589 22.1848 41.1273 26.3951C42.9363 25.6991 44.6034 24.3921 45.9841 22.9852Z" fill="black"/>
<path d="M21.7437 17.5397C20.9783 17.3423 20.1789 17.6658 19.7504 18.33C17.0402 22.5306 14.8959 27.9736 14.8959 34.6632C14.8959 44.0376 19.107 50.9642 23.1849 55.4539C25.2236 57.6984 27.2577 59.3694 28.7888 60.4845C29.5567 61.0438 30.2049 61.4682 30.6731 61.7594C30.8329 61.8588 31.7442 62.3639 32.3515 62.7006C32.6348 62.8576 32.8519 62.978 32.8959 63.0034C32.9393 62.9783 33.1522 62.8603 33.4308 62.7058L33.4396 62.701C34.0469 62.3643 34.9589 61.8587 35.1186 61.7594C35.5869 61.4682 36.235 61.0438 37.0029 60.4845C38.534 59.3694 40.5681 57.6984 42.6068 55.4539C45.0648 52.7477 47.5712 49.1562 49.1746 44.6769C46.1035 46.1867 42.9244 47.2086 40.4299 47.7883C39.9319 47.9041 39.4924 48.1953 39.1878 48.6059C38.6166 49.3756 38.0231 50.0892 37.4252 50.7475C35.7802 52.5586 34.1307 53.9154 32.8959 54.8159C31.661 53.9154 30.0116 52.5586 28.3666 50.7475C25.0646 47.1121 21.8959 41.7888 21.8959 34.6632C21.8959 28.4397 24.3131 23.5909 27.1251 20.0409C25.6179 18.8222 23.6524 18.0319 21.7437 17.5397Z" fill="black"/>
</svg>
