<svg width="64" height="64" viewBox="0 0 64 64" fill="none" xmlns="http://www.w3.org/2000/svg">
<path d="M40.4629 8.5C40.4629 13.1944 36.6573 17 31.9629 17C27.2685 17 23.4629 13.1944 23.4629 8.5C23.4629 3.80558 27.2685 0 31.9629 0C36.6573 0 40.4629 3.80558 40.4629 8.5Z" fill="black"/>
<path d="M56.5645 27.6111C52.499 29.9583 47.3005 28.5654 44.9533 24.4999C42.6061 20.4344 43.999 15.2359 48.0645 12.8887C52.13 10.5415 57.3285 11.9344 59.6757 15.9999C62.0229 20.0654 60.63 25.2639 56.5645 27.6111Z" fill="black"/>
<path d="M4.25007 47.9999C6.59728 52.0654 11.7958 53.4583 15.8613 51.1111C19.9268 48.7639 21.3197 43.5654 18.9725 39.4999C16.6253 35.4344 11.4268 34.0415 7.36128 36.3887C3.2958 38.7359 1.90286 43.9344 4.25007 47.9999Z" fill="black"/>
<path d="M56.5645 36.3889C52.499 34.0417 47.3005 35.4346 44.9533 39.5001C42.6061 43.5656 43.999 48.7641 48.0645 51.1113C52.13 53.4585 57.3285 52.0656 59.6757 48.0001C62.0229 43.9346 60.63 38.7361 56.5645 36.3889Z" fill="black"/>
<path d="M15.8613 12.8887C11.7958 10.5415 6.59729 11.9345 4.25008 16C1.90287 20.0654 3.29581 25.264 7.36129 27.6112C9.96803 29.1162 13.0406 29.0835 15.5286 27.7946C17.2573 26.8992 19.3695 26.409 21.0555 27.3825L21.6333 27.716C22.924 28.4612 23.4629 30.0094 23.4629 31.4998C23.4629 34.3973 24.9127 36.9562 27.1263 38.4906C28.6506 39.5472 30.0001 41.0821 30.0001 42.9368V44.0629C30.0001 45.9176 28.6506 47.4525 27.1263 48.5091C24.9127 50.0435 23.4629 52.6024 23.4629 55.4998C23.4629 60.1943 27.2685 63.9998 31.9629 63.9998C36.6573 63.9998 40.4629 60.1943 40.4629 55.4998C40.4629 52.6193 39.03 50.0734 36.8381 48.536C35.3308 47.4788 34.0001 45.9513 34.0001 44.1102V42.8895C34.0001 41.0484 35.3308 39.5209 36.8381 38.4636C39.03 36.9263 40.4629 34.3804 40.4629 31.4998C40.4629 26.8054 36.6573 22.9998 31.9629 22.9998C30.6948 22.9998 29.4916 23.2775 28.4107 23.7754C26.7519 24.5395 24.7827 24.9155 23.2011 24.0024L22.4539 23.571C20.9399 22.6969 20.2654 20.9156 20.0443 19.1814C19.7201 16.6378 18.2533 14.2697 15.8613 12.8887Z" fill="black"/>
</svg>
