<svg width="64" height="64" viewBox="0 0 64 64" fill="none" xmlns="http://www.w3.org/2000/svg">
<g clip-path="url(#clip0_101_171)">
<path d="M8 0C3.58172 0 0 3.58172 0 8V16.5648L13.8729 22.391C15.7269 19.2301 18.384 16.5972 21.564 14.7725L15.5297 0H8Z" fill="black"/>
<path d="M20.9308 0L26.1677 12.8205C28.0194 12.2863 29.9763 12 32 12C33.7752 12 35.4989 12.2203 37.1454 12.6349L42.4517 0H20.9308Z" fill="black"/>
<path d="M47.8747 0L41.8146 14.4299C45.2186 16.2327 48.0675 18.944 50.0382 22.2409L64 16.5378V8C64 3.58172 60.4183 0 56 0H47.8747Z" fill="black"/>
<path d="M64 21.9388L52.0731 26.8108C52.6756 28.7673 53 30.8458 53 33C53 34.9088 52.7453 36.7581 52.2681 38.5159L64 43.4429V21.9388Z" fill="black"/>
<path d="M64 48.866L50.3888 43.1497C48.4401 46.6727 45.5083 49.5763 41.9636 51.4904L47.0736 64H56C60.4183 64 64 60.4183 64 56V48.866Z" fill="black"/>
<path d="M41.6725 64L37.311 53.3226C35.6146 53.7647 33.8348 54 32 54C29.7726 54 27.6262 53.6532 25.6118 53.0107L20.9966 64H41.6725Z" fill="black"/>
<path d="M15.5736 64L21.0625 50.9303C17.7885 48.929 15.1053 46.0561 13.3355 42.6343L0 48.0816V56C0 60.4183 3.58172 64 8 64H15.5736Z" fill="black"/>
<path d="M0 42.6805L11.5862 37.9478C11.203 36.3612 11 34.7043 11 33C11 30.9062 11.3064 28.884 11.8769 26.9758L0 21.9879V42.6805Z" fill="black"/>
<path fill-rule="evenodd" clip-rule="evenodd" d="M17 33C17 24.7157 23.7157 18 32 18C40.2843 18 47 24.7157 47 33C47 41.2843 40.2843 48 32 48C23.7157 48 17 41.2843 17 33ZM38 33C38 36.3137 35.3137 39 32 39C28.6863 39 26 36.3137 26 33C26 29.6863 28.6863 27 32 27C35.3137 27 38 29.6863 38 33Z" fill="black"/>
</g>
<defs>
<clipPath id="clip0_101_171">
<rect width="64" height="64" fill="white"/>
</clipPath>
</defs>
</svg>
